<svg version="1.1" id="Layer_1" xmlns="http://www.w3.org/2000/svg" xmlns:xlink="http://www.w3.org/1999/xlink" x="0px" y="0px"
	 width="30px" viewBox="0 0 576 384" enable-background="new 0 0 576 384" xml:space="preserve">
<path fill="#000000" opacity="1.000000" stroke="none" 
	d="
M247.682510,272.629272 
	C243.875519,283.536713 236.539902,286.260742 225.625610,285.613953 
	C208.355057,284.590485 190.979126,285.358215 173.647858,285.328430 
	C171.678574,285.325043 169.646347,285.713013 166.743896,284.317230 
	C207.809509,214.818497 248.811432,145.427567 290.501617,74.871826 
	C332.112762,145.300720 373.056061,214.599258 413.891571,283.715363 
	C412.079620,285.951080 410.296448,285.319916 408.746582,285.322906 
	C388.249054,285.362213 367.750427,285.242126 347.254669,285.436798 
	C343.365631,285.473724 341.132172,284.154022 339.351654,280.836945 
	C336.084900,274.751129 332.494751,268.838898 328.404877,261.755280 
	C343.719666,261.755280 357.746918,261.755280 373.250702,261.755280 
	C345.410126,214.645523 318.278900,168.736053 290.535706,121.791061 
	C262.862854,168.618866 235.729904,214.533096 207.868393,261.680176 
	C223.540161,261.680176 238.003510,261.680176 253.021698,261.680176 
	C252.059906,266.383545 249.511902,269.137695 247.682510,272.629272 
z"/>
<path fill="#000000" opacity="1.000000" stroke="none" 
	d="
M267.600677,238.546082 
	C264.527588,246.532684 259.380890,249.842636 250.925629,248.558167 
	C245.926346,247.798706 240.717422,248.419281 234.011856,248.419281 
	C253.194977,216.090820 271.693329,184.916336 291.089966,152.228058 
	C310.322052,184.747757 328.781067,215.960220 347.783508,248.091599 
	C338.276886,248.651276 329.874573,248.601791 321.481049,248.127228 
	C319.420074,248.010696 318.819427,245.795349 317.906311,244.254456 
	C310.352386,231.507187 302.830353,218.741043 295.285461,205.988419 
	C294.108643,203.999283 292.864929,202.049683 291.108948,199.200317 
	C283.068207,212.662659 275.431305,225.448914 267.600677,238.546082 
z"/>
</svg>