<svg version="1.1" id="Layer_1" xmlns="http://www.w3.org/2000/svg" xmlns:xlink="http://www.w3.org/1999/xlink" x="0px" y="0px"
	 width="100%" viewBox="0 0 534 352" enable-background="new 0 0 534 352" xml:space="preserve">
<path fill="#FFFFFF" opacity="1.000000" stroke="none" 
	d="
M343.000000,353.000000 
	C230.031723,353.000000 117.563431,352.984100 5.095241,353.080627 
	C1.879553,353.083374 0.889529,352.717072 0.893612,349.097321 
	C1.023125,234.296524 1.017280,119.495514 0.911963,4.694654 
	C0.908974,1.437023 1.813166,0.931137 4.803341,0.932426 
	C180.253830,1.008052 355.704346,1.006852 531.154846,0.940559 
	C534.045898,0.939467 535.098267,1.291608 535.094910,4.652824 
	C534.980835,119.620285 534.982422,234.587891 535.093140,349.555359 
	C535.096191,352.690582 534.275635,353.073792 531.446411,353.069672 
	C468.797729,352.978607 406.148834,353.000000 343.000000,353.000000 
z"/>
<path fill="#C0165B" opacity="1.000000" stroke="none" 
	d="
M292.871521,110.878799 
	C293.170502,110.626495 293.297455,110.459915 293.728943,110.216187 
	C299.912231,108.374161 305.641937,107.685455 311.002808,112.554962 
	C311.386810,112.674904 311.263489,112.587303 311.336700,112.606285 
	C314.822449,116.997025 316.671997,122.174690 318.992401,127.496620 
	C319.309082,128.515274 319.735901,129.071259 320.353851,129.923477 
	C321.218323,131.981720 322.084320,133.677124 322.218323,135.914978 
	C320.458374,137.710190 319.208557,139.373077 319.216614,141.722610 
	C319.218842,142.376495 319.261414,143.355820 318.837402,143.607208 
	C314.526001,146.163132 316.774628,150.589828 315.574585,154.365601 
	C315.218811,154.818817 315.038452,154.968765 314.510162,155.180542 
	C313.034058,154.706039 312.479767,153.634216 311.605042,152.392044 
	C311.334412,151.875885 311.243164,151.661667 311.048248,151.116165 
	C310.447845,148.320740 309.521393,146.033325 307.923035,143.667648 
	C307.320831,142.845001 306.987061,142.254761 306.526428,141.347473 
	C306.035431,140.214279 305.795563,139.348923 305.358582,138.199982 
	C304.541718,135.798706 303.421631,133.922180 302.058990,131.868332 
	C301.465973,131.539749 301.091339,131.465927 300.426208,131.573120 
	C298.914307,132.631226 298.736206,134.130325 298.136230,135.768555 
	C297.960876,136.266525 297.882812,136.461472 297.662659,136.933960 
	C296.984497,138.056091 296.355835,138.848312 295.953064,140.105408 
	C295.793304,140.580002 295.726349,140.769852 295.555237,141.244415 
	C295.250854,142.116135 295.076874,142.710739 294.836548,143.627045 
	C294.453522,144.587494 294.023132,145.064301 292.941162,145.091492 
	C289.382904,143.645325 288.316742,141.500809 290.225708,138.319122 
	C290.954559,137.104370 291.122437,135.854813 290.672241,134.505920 
	C290.047180,132.633057 290.713684,131.188141 292.384186,130.330063 
	C295.296082,128.834335 294.831543,126.287125 294.519989,123.820557 
	C294.310883,122.165329 293.975677,120.455856 291.868713,120.097763 
	C289.689819,119.727440 288.343414,120.799850 287.669464,122.738266 
	C284.066528,133.101303 277.615417,142.149979 273.829407,152.818283 
	C268.309784,165.202332 261.900513,176.768982 256.526917,189.202545 
	C255.924957,190.231857 255.435333,190.938187 255.132324,192.073456 
	C255.009613,192.567474 254.958817,192.764221 254.808167,193.248474 
	C254.615219,193.715790 254.522110,193.895599 254.249390,194.317413 
	C253.692032,195.032425 253.339645,195.520447 253.066101,196.415131 
	C250.194427,202.901199 247.186035,208.970779 244.546646,215.225449 
	C243.364807,218.026108 243.732544,219.758789 245.131393,222.110870 
	C238.420639,221.431320 238.395172,221.419464 241.059967,215.699112 
	C256.075317,183.466599 271.093628,151.235458 286.153381,119.023682 
	C287.060913,117.082542 288.334381,115.312485 289.729065,113.315521 
	C290.020508,113.168213 290.431641,113.421844 290.431641,113.421844 
	C290.431641,113.421844 290.783020,113.090210 290.692047,112.865875 
	C290.601074,112.641533 290.681915,112.615700 290.658569,112.651138 
	C291.066711,112.772583 291.422882,112.654259 291.734131,111.991142 
	C291.777069,111.684875 291.812286,111.889130 291.763550,111.797653 
	C291.714844,111.706184 292.159882,111.525566 292.328522,111.570808 
	C292.497162,111.616051 292.658081,111.807487 292.658081,111.807487 
	C292.658081,111.807487 292.830841,111.598129 292.719543,111.468109 
	C292.608246,111.338089 292.699432,110.964531 292.871521,110.878799 
z"/>
<path fill="#AC2264" opacity="1.000000" stroke="none" 
	d="
M355.760956,210.963440 
	C356.284637,211.821304 356.697937,212.371353 357.335419,213.056244 
	C359.239014,213.720581 359.901093,215.168839 360.764465,216.873169 
	C363.218628,220.008865 362.629272,221.432114 358.964111,222.281052 
	C350.996918,224.126480 343.766846,222.781799 337.224182,217.972549 
	C319.376007,204.853012 300.159271,201.658127 278.921143,209.850540 
	C278.169647,210.361023 277.721771,210.497421 276.973145,209.982910 
	C276.980774,208.477371 277.883118,207.907181 279.137573,207.143585 
	C285.313721,204.589661 291.251465,202.722305 298.023743,202.603577 
	C302.293640,202.572906 306.154358,202.428452 310.389465,202.793945 
	C319.381134,205.723541 328.298218,207.826202 336.028076,212.924835 
	C337.098267,213.630753 338.439453,214.665085 339.510651,213.195404 
	C340.415894,211.953430 339.207764,211.027527 338.277496,210.383514 
	C336.494629,209.149216 336.435028,207.634384 336.747253,205.621765 
	C337.401917,201.402008 336.435852,200.427673 332.379730,201.105728 
	C329.450653,201.595413 327.940094,201.055679 326.994965,197.819305 
	C325.931305,194.176971 322.077362,194.017853 318.531677,193.309204 
	C311.820099,192.095932 305.670135,189.686646 298.624634,190.375092 
	C297.342712,190.341583 296.490021,190.259323 295.248657,189.866699 
	C294.311462,189.396835 293.964417,188.948486 294.031647,187.986572 
	C301.481934,185.376862 308.633972,186.902756 315.768982,188.090897 
	C317.378418,188.358917 319.020996,188.684570 320.979004,189.369049 
	C321.907745,189.582703 322.436951,189.688248 323.338623,189.910614 
	C332.756409,193.300232 341.220520,197.660278 348.786377,203.649612 
	C350.192780,204.762955 351.735596,205.794312 352.698181,207.841919 
	C352.829468,208.187988 352.986389,208.018204 352.898743,208.093567 
	C354.135498,208.566284 355.143646,209.324814 355.760956,210.963440 
z"/>
<path fill="#DC0652" opacity="1.000000" stroke="none" 
	d="
M254.181885,193.250031 
	C254.138779,192.139450 254.298416,191.268921 254.720917,190.188934 
	C260.198547,191.061646 262.698395,195.633255 261.539124,200.258957 
	C260.118195,205.928864 260.116241,211.798508 261.591431,217.901199 
	C257.754639,222.324615 252.622406,222.020905 247.415558,222.715607 
	C246.551178,222.740494 246.078156,222.742599 245.286789,222.579605 
	C241.966934,220.507065 241.132919,219.241562 243.237137,215.053024 
	C246.375153,208.806808 249.400253,202.341568 252.010101,195.391510 
	C252.507385,194.661774 253.171585,194.845093 253.805450,194.228119 
	C253.961853,193.982635 253.985901,194.000031 253.983688,193.986084 
	C254.115875,193.811447 254.250259,193.650772 254.181885,193.250031 
z"/>
<path fill="#FCE7F4" opacity="1.000000" stroke="none" 
	d="
M352.889557,207.788589 
	C344.174896,201.282822 335.081390,195.135529 324.141754,191.488831 
	C323.344879,190.265076 323.967682,189.666016 324.728241,189.413620 
	C326.458038,188.839584 326.844849,188.439392 325.083527,187.155716 
	C323.438843,185.957062 323.119141,183.908493 323.062744,181.591049 
	C323.161560,181.045990 323.226746,180.834518 323.472046,180.347137 
	C324.275055,179.627579 324.843140,179.805008 325.599304,180.441681 
	C325.923462,180.816101 326.038239,180.973480 326.296021,181.376648 
	C326.596558,181.947479 326.750519,182.274185 327.029724,182.817917 
	C327.159027,183.033005 327.459412,183.422043 327.637085,183.589172 
	C327.814758,183.756317 328.218964,184.032974 328.438232,184.151489 
	C328.810211,184.344055 328.962921,184.418091 329.348755,184.603729 
	C329.902985,184.866089 330.224945,185.014969 330.806030,185.271973 
	C331.238190,185.461746 331.411896,185.541794 331.847900,185.748047 
	C333.002747,186.331528 333.941254,186.670319 335.196838,187.054993 
	C335.686035,187.236420 335.878479,187.319550 336.345978,187.556595 
	C337.151215,188.047852 337.659302,188.418671 338.464539,188.908936 
	C338.913452,189.178421 339.091400,189.288773 339.531189,189.571335 
	C340.797943,190.505829 341.954712,190.990158 343.352295,191.697968 
	C343.800995,191.981857 343.974274,192.105637 344.393921,192.432770 
	C344.802155,192.778122 344.964020,192.920090 345.628754,193.490753 
	C348.163757,195.444199 350.179077,196.988754 352.186127,199.062408 
	C353.066315,199.892593 353.720642,200.474548 354.494537,201.390182 
	C355.918762,204.093292 352.804688,205.241699 352.889557,207.788589 
z"/>
<path fill="#CF545B" opacity="1.000000" stroke="none" 
	d="
M315.023682,238.707733 
	C313.714478,238.850555 312.710876,238.829102 311.325195,238.825439 
	C309.125580,238.475723 307.963898,237.451553 307.493713,235.300903 
	C305.861084,234.988052 305.750366,234.959793 305.463715,236.082932 
	C304.601410,239.461472 303.283569,240.892334 300.953308,237.100586 
	C299.495422,234.728287 298.670258,235.068344 297.966644,237.471390 
	C297.716705,238.325073 297.274963,239.146317 296.315674,238.884338 
	C294.907990,238.499924 295.551880,237.339401 295.680267,236.423813 
	C295.817932,235.441910 295.689240,234.290161 296.167419,233.515335 
	C297.253510,231.755539 295.814178,228.687958 298.619141,228.012604 
	C301.665741,227.279083 300.735443,231.379730 302.892487,231.988937 
	C304.256073,231.306061 303.621735,229.528351 304.661163,228.633774 
	C305.334351,228.054413 305.985840,227.677689 306.717560,228.496185 
	C310.061188,232.236359 311.638000,232.088074 314.653870,227.843369 
	C314.973755,227.393158 315.706970,227.236649 316.595673,226.987335 
	C318.581299,228.840790 317.481964,230.582260 316.648499,232.628479 
	C316.020355,233.646484 315.652191,234.397873 315.871216,235.625946 
	C315.987762,236.876266 315.915375,237.768234 315.023682,238.707733 
z"/>
<path fill="#AC2264" opacity="1.000000" stroke="none" 
	d="
M352.383942,199.917023 
	C349.807861,198.239471 347.548950,196.427185 345.109924,194.336639 
	C346.152374,192.441742 346.046539,190.989899 345.199860,189.039536 
	C337.880676,172.179596 329.751221,155.691010 322.350372,138.870804 
	C322.152405,138.420898 322.171021,137.894257 322.248291,137.036102 
	C322.438629,136.465240 322.556976,136.252014 323.004700,135.879578 
	C331.962311,153.991913 340.590576,172.263489 349.438904,190.806915 
	C351.229523,191.718475 351.279816,193.199631 351.654572,194.885010 
	C351.732147,195.225922 351.703339,195.233200 351.697937,195.247070 
	C353.056244,195.649002 353.149414,196.849396 353.409668,198.288696 
	C353.286987,199.085800 353.050140,199.468750 352.383942,199.917023 
z"/>
<path fill="#CF545B" opacity="1.000000" stroke="none" 
	d="
M285.130432,238.656815 
	C282.943878,239.487701 281.483154,234.177856 278.591370,238.650497 
	C277.690887,240.043259 278.289795,235.776123 275.941315,235.399216 
	C275.334930,240.356598 271.630890,237.928421 268.501282,238.200378 
	C267.949524,238.077133 267.790283,237.916931 267.555603,237.427399 
	C267.522644,236.640503 267.674805,236.221191 268.143707,235.579330 
	C269.405151,234.594772 269.514618,233.460999 269.867859,232.062531 
	C272.246460,234.221069 273.457031,233.975372 273.747559,230.556015 
	C273.851807,229.329254 273.541687,227.586914 275.168793,227.201889 
	C277.591675,226.628586 276.197510,229.040421 276.885712,229.708008 
	C278.520874,231.294205 280.427612,232.600494 282.651642,233.876938 
	C284.280884,235.051636 284.808228,236.687912 285.130432,238.656815 
z"/>
<path fill="#CF545B" opacity="1.000000" stroke="none" 
	d="
M332.669434,231.358368 
	C335.347687,232.429382 336.616699,231.696335 337.041138,229.067032 
	C337.223236,227.938812 337.558136,226.629257 339.240204,227.185471 
	C340.099731,227.469681 339.698212,228.285263 339.764557,229.254242 
	C340.059235,232.654633 340.422668,235.709366 338.038879,238.620880 
	C334.273468,239.450348 331.518433,238.528717 329.359192,235.590729 
	C327.093475,232.025940 330.483398,232.409332 332.669434,231.358368 
z"/>
<path fill="#C0165B" opacity="1.000000" stroke="none" 
	d="
M247.352936,222.857239 
	C251.390320,221.044907 256.289093,220.959412 260.670776,218.158203 
	C263.851013,214.939682 267.254730,212.543091 270.652710,210.186844 
	C272.278229,209.059647 274.324493,208.603943 276.662231,209.674362 
	C277.298737,209.947632 277.648346,209.962433 278.257019,209.938232 
	C273.410828,212.597534 268.328461,215.291382 263.641174,218.741440 
	C258.958832,222.187851 253.490356,223.402664 247.352936,222.857239 
z"/>
<path fill="#C74347" opacity="1.000000" stroke="none" 
	d="
M250.186523,238.633392 
	C249.583740,238.956497 249.155396,239.106064 248.939392,238.953995 
	C244.458191,235.799332 244.462967,235.792557 240.091919,239.111084 
	C240.606812,234.850525 242.882645,231.838608 244.963501,228.908401 
	C246.331390,226.982208 248.101242,227.424362 248.984924,230.242584 
	C251.579361,232.802826 251.054886,235.555023 250.186523,238.633392 
z"/>
<path fill="#FCE7F4" opacity="1.000000" stroke="none" 
	d="
M258.504211,238.670258 
	C257.657288,238.885529 257.098267,238.902237 256.121338,238.878784 
	C255.277786,237.666458 255.698105,236.304367 254.788971,235.223831 
	C252.803329,232.863815 254.931870,232.378998 256.714142,231.396133 
	C257.394073,230.678406 257.953247,230.274979 258.253052,229.729095 
	C260.542419,225.560776 262.285492,226.197372 263.839020,230.626709 
	C265.041260,234.624527 263.755951,237.962051 262.284119,241.637024 
	C260.937469,241.617111 260.294159,240.861984 260.020630,239.432831 
	C259.963074,237.767853 260.025269,236.416931 260.027740,235.064240 
	C259.891479,236.300247 260.029633,237.636185 258.504211,238.670258 
z"/>
<path fill="#FCE7F4" opacity="1.000000" stroke="none" 
	d="
M315.122620,233.266205 
	C316.001404,231.301895 316.473846,229.518158 316.944580,227.382599 
	C319.700439,226.728531 320.929169,229.027176 322.849976,230.720886 
	C324.202118,233.738937 323.537994,236.158264 321.535004,238.657135 
	C320.960480,238.894348 320.705536,238.893311 320.069244,238.863007 
	C318.844971,237.513443 318.884949,236.103409 319.217041,234.646652 
	C318.663391,235.901459 319.270874,237.619156 317.464233,238.700317 
	C316.629761,238.910385 316.083313,238.920486 315.127472,238.901291 
	C314.853241,237.850174 314.988434,236.828354 315.108154,235.420135 
	C314.602203,234.591309 314.477051,234.062241 315.122620,233.266205 
z"/>
<path fill="#C74347" opacity="1.000000" stroke="none" 
	d="
M359.871887,232.442993 
	C360.956390,231.773529 361.737701,231.116226 362.464844,231.171524 
	C364.495026,231.325928 367.844910,229.781342 368.176392,232.497925 
	C368.496460,235.120972 368.492950,239.419937 363.394196,238.938004 
	C362.577240,238.860794 361.738831,239.010391 360.475311,239.004547 
	C358.705688,236.990097 358.234344,234.956833 359.871887,232.442993 
z"/>
<path fill="#AC2264" opacity="1.000000" stroke="none" 
	d="
M318.229828,129.164459 
	C317.364105,123.077690 313.537903,118.548744 311.305969,112.997887 
	C315.891235,116.206551 316.715637,121.873138 319.288696,126.539207 
	C320.783905,129.250626 321.909515,132.165863 323.267761,135.354858 
	C323.334045,135.720337 323.132935,135.889679 323.034180,135.976395 
	C322.770233,136.161301 322.605072,136.259476 322.221161,136.169922 
	C321.281586,134.249527 319.985687,132.738800 319.953735,130.372437 
	C319.559662,129.521667 318.974976,129.495544 318.229828,129.164459 
z"/>
<path fill="#C74347" opacity="1.000000" stroke="none" 
	d="
M262.399109,241.975861 
	C261.727051,238.398392 263.095581,235.102478 263.844238,231.320496 
	C265.855469,231.020218 267.722992,231.082397 269.831299,231.462616 
	C270.275757,233.222992 272.116089,234.929367 269.051727,235.905182 
	C268.219910,235.711472 267.904541,234.909851 267.255859,235.437195 
	C267.078278,235.581589 267.298462,235.991806 267.735046,236.471924 
	C267.957458,236.976822 267.995605,237.227936 268.071289,237.858185 
	C265.889008,238.862823 264.096436,240.097641 262.399109,241.975861 
z"/>
<path fill="#C74347" opacity="1.000000" stroke="none" 
	d="
M347.509033,237.765778 
	C345.237701,239.356567 342.997620,238.775467 340.472504,239.010223 
	C338.187256,236.421219 339.476837,234.047745 340.744873,231.345673 
	C343.119385,231.030838 345.193024,231.027206 347.714539,230.979904 
	C349.636688,233.194946 349.346924,235.367218 347.509033,237.765778 
z"/>
<path fill="#C74347" opacity="1.000000" stroke="none" 
	d="
M285.369385,239.008362 
	C284.071075,237.543686 282.697052,236.318253 283.083038,234.046509 
	C283.133606,233.555954 283.188538,233.377945 283.466522,233.031631 
	C284.434143,232.572968 284.760071,231.756729 285.738647,231.302399 
	C287.710571,230.688492 289.384613,230.732224 290.265289,232.497620 
	C291.200409,234.372009 288.708191,234.865768 288.500580,235.878098 
	C288.124603,237.711166 288.632202,239.618958 285.369385,239.008362 
z"/>
<path fill="#C74347" opacity="1.000000" stroke="none" 
	d="
M321.530945,238.927078 
	C321.756073,236.515442 322.296692,234.135498 322.921082,231.392700 
	C323.434875,231.046814 323.864838,231.063782 324.618622,231.067123 
	C325.110474,231.170898 325.278503,231.288300 325.657349,231.181854 
	C326.643372,230.975433 327.418518,230.992813 328.577850,231.066803 
	C329.409149,231.074448 329.856750,231.030136 330.640991,230.962372 
	C331.428284,230.941101 331.879456,230.948669 332.656860,231.046814 
	C333.044647,233.886658 328.622253,232.092300 328.951843,235.476257 
	C328.774323,237.302139 329.492249,239.551819 326.351929,238.297577 
	C325.994354,237.438477 326.036316,236.547104 325.534637,236.387619 
	C324.884613,236.181000 324.897156,237.199661 324.237396,237.774353 
	C323.485626,238.763535 322.779449,239.122375 321.530945,238.927078 
z"/>
<path fill="#C74347" opacity="1.000000" stroke="none" 
	d="
M350.764648,231.308243 
	C352.689514,231.004639 354.356720,230.990097 356.442932,231.011597 
	C358.374908,232.953033 358.694153,235.012360 357.395264,237.636902 
	C356.598114,238.357193 356.067017,238.686646 355.208435,239.028015 
	C354.171478,238.349060 354.174103,237.246704 353.450317,236.564087 
	C352.922363,237.164597 352.872345,238.039536 351.954956,238.719528 
	C351.027679,238.880676 350.425171,238.925171 349.520081,238.933838 
	C348.278168,236.222595 349.026276,233.845245 350.764648,231.308243 
z"/>
<path fill="#AC2264" opacity="1.000000" stroke="none" 
	d="
M311.235626,112.368652 
	C306.074341,109.852661 300.477966,109.186005 294.329285,110.303238 
	C300.167084,106.791504 305.808228,107.809387 311.235626,112.368652 
z"/>
<path fill="#C74347" opacity="1.000000" stroke="none" 
	d="
M256.568115,231.083557 
	C257.119507,231.596191 257.284027,232.044571 257.448517,232.492950 
	C255.038361,233.200241 255.259766,234.145294 256.901672,235.713120 
	C257.551575,236.333740 256.901428,237.553619 255.886902,238.535583 
	C254.708328,238.902649 253.713257,238.966660 252.343048,239.007233 
	C251.013062,237.314758 251.160965,234.636673 252.728195,231.285156 
	C254.105804,231.137848 255.143494,231.078568 256.568115,231.083557 
z"/>
<path fill="#FCE7F4" opacity="1.000000" stroke="none" 
	d="
M252.790009,230.865143 
	C251.983200,234.099838 251.983200,234.099838 254.392197,236.465439 
	C251.921585,236.678421 251.921585,236.678421 251.828476,238.713959 
	C251.511139,238.987320 251.054337,238.990860 250.255371,238.970886 
	C249.619675,236.362579 249.326141,233.777771 249.077332,230.878998 
	C250.248230,230.153763 251.375153,229.820160 252.790009,230.865143 
z"/>
<path fill="#FCE7F4" opacity="1.000000" stroke="none" 
	d="
M357.438202,238.048218 
	C357.136322,235.981735 357.143402,233.935715 357.006226,231.468674 
	C357.742035,231.366226 358.622131,231.684799 359.851013,232.054474 
	C360.030151,234.100693 359.353302,236.070923 359.972961,238.527710 
	C359.275909,238.658875 358.511536,238.363785 357.438202,238.048218 
z"/>
<path fill="#FCE7F4" opacity="1.000000" stroke="none" 
	d="
M350.664917,231.006470 
	C350.453705,233.409103 349.885101,235.798996 349.267029,238.543457 
	C348.706482,238.693390 348.195404,238.488785 347.430298,238.167877 
	C347.577057,235.947739 347.977875,233.843872 348.270569,231.338104 
	C348.877472,230.955399 349.592468,230.974579 350.664917,231.006470 
z"/>
<path fill="#FCE7F4" opacity="1.000000" stroke="none" 
	d="
M353.038086,199.432907 
	C352.583679,198.040451 352.184326,196.984589 351.738770,195.594818 
	C355.505890,195.412796 357.133789,196.945923 354.817078,200.937042 
	C353.710449,200.977142 353.344574,200.431595 353.038086,199.432907 
z"/>
<path fill="#FCE7F4" opacity="1.000000" stroke="none" 
	d="
M352.035461,238.881866 
	C351.676147,238.512833 351.690399,238.181122 351.773254,237.867554 
	C352.227112,236.150009 351.421021,233.028915 354.216248,233.537277 
	C356.226959,233.902969 354.416595,236.593002 354.790527,238.625381 
	C354.067566,239.002472 353.254150,238.965027 352.035461,238.881866 
z"/>
<path fill="#C74347" opacity="1.000000" stroke="none" 
	d="
M258.513245,238.896317 
	C259.355164,236.405106 258.364197,233.169174 261.222534,230.395905 
	C261.621063,233.736847 261.130035,236.164703 260.264954,238.853317 
	C259.593994,239.054428 259.202118,238.989120 258.513245,238.896317 
z"/>
<path fill="#CF545B" opacity="1.000000" stroke="none" 
	d="
M317.490967,238.948929 
	C318.156860,236.343445 317.275787,233.108170 320.135864,230.632645 
	C321.160004,233.495697 319.750061,235.748505 319.758087,238.434937 
	C319.060516,238.888367 318.433105,238.942963 317.490967,238.948929 
z"/>
<path fill="#FCE7F4" opacity="1.000000" stroke="none" 
	d="
M340.772278,230.861328 
	C340.445587,233.368744 339.013336,235.569214 339.976135,238.553894 
	C339.526672,238.956345 339.003632,238.947937 338.089447,238.900940 
	C338.233398,235.994354 338.768494,233.126373 339.542053,229.935928 
	C340.019958,229.971695 340.259369,230.329941 340.772278,230.861328 
z"/>
<path fill="#FCE7F4" opacity="1.000000" stroke="none" 
	d="
M324.378662,238.013077 
	C323.989044,236.001984 323.365784,233.681747 326.490051,233.257874 
	C327.445923,234.663589 326.783447,236.072250 326.392456,237.739685 
	C325.686035,238.014771 325.210571,238.013443 324.378662,238.013077 
z"/>
<path fill="#C74347" opacity="1.000000" stroke="none" 
	d="
M307.156738,235.382126 
	C309.470734,235.088165 308.845612,237.877747 310.763092,238.588364 
	C308.093872,239.749176 307.376465,237.947998 307.156738,235.382126 
z"/>
<path fill="#FCE7F4" opacity="1.000000" stroke="none" 
	d="
M360.937927,216.779068 
	C359.886658,216.048569 358.857361,214.922913 357.693848,213.494156 
	C359.937805,212.929703 360.956512,214.116165 360.937927,216.779068 
z"/>
<path fill="#CF545B" opacity="1.000000" stroke="none" 
	d="
M352.784058,199.207413 
	C353.361115,199.648254 353.739166,200.200195 354.293823,200.936584 
	C354.470428,201.121033 354.541290,201.398209 354.629456,201.510117 
	C353.617462,201.942566 352.977661,201.215515 352.186188,200.306854 
	C352.152008,199.745392 352.324768,199.500977 352.784058,199.207413 
z"/>
<path fill="#FCE7F4" opacity="1.000000" stroke="none" 
	d="
M355.900208,210.872147 
	C354.921417,210.437103 353.971527,209.602966 352.916351,208.468872 
	C354.616364,207.900482 356.054474,208.128906 355.900208,210.872147 
z"/>
<path fill="#FCE7F4" opacity="1.000000" stroke="none" 
	d="
M351.819702,194.821503 
	C351.083435,194.065659 350.434723,192.905396 349.722473,191.411957 
	C352.103760,191.049789 352.027740,192.718460 351.819702,194.821503 
z"/>
<path fill="#FCE7F4" opacity="1.000000" stroke="none" 
	d="
M330.816986,230.712677 
	C330.549316,231.594101 330.036224,232.032730 329.078674,231.370865 
	C329.328857,230.381195 329.822418,229.979111 330.816986,230.712677 
z"/>
<path fill="#CF545B" opacity="1.000000" stroke="none" 
	d="
M285.688477,231.188675 
	C285.422668,231.695282 284.849426,232.222916 283.982880,232.806946 
	C284.253418,232.312134 284.817230,231.760910 285.688477,231.188675 
z"/>
<path fill="#AC2264" opacity="1.000000" stroke="none" 
	d="
M293.006592,111.802795 
	C292.782623,111.974564 292.565155,111.938629 292.031250,111.804428 
	C292.011444,111.412544 292.308044,111.118912 292.824127,110.809174 
	C293.034271,111.060448 293.024139,111.327782 293.006592,111.802795 
z"/>
<path fill="#FCE7F4" opacity="1.000000" stroke="none" 
	d="
M325.634644,230.961334 
	C325.617676,231.089813 325.367157,231.221588 325.029541,231.203430 
	C324.942413,231.053497 325.401062,230.964630 325.634644,230.961334 
z"/>
<path fill="#AC2264" opacity="1.000000" stroke="none" 
	d="
M290.401367,112.713028 
	C290.706085,112.985512 291.000763,113.402481 290.158142,113.301445 
	C290.020508,113.168213 290.201630,112.784531 290.401367,112.713028 
z"/>
<path fill="#AC2264" opacity="1.000000" stroke="none" 
	d="
M291.514893,111.758331 
	C291.595764,112.011986 291.414490,112.339096 290.934204,112.676384 
	C290.841064,112.401642 291.046906,112.116714 291.514893,111.758331 
z"/>
<path fill="#D50B55" opacity="1.000000" stroke="none" 
	d="
M277.123962,209.706924 
	C272.616547,209.645554 269.629272,212.072311 266.665222,214.786011 
	C265.243469,216.087677 263.369995,216.895935 261.349304,217.958878 
	C258.390625,213.375748 259.270081,208.520523 259.775757,203.611450 
	C259.972137,201.704819 258.147339,199.489731 261.355927,198.428757 
	C262.169891,198.159607 262.058685,196.526062 261.443573,196.324310 
	C258.373566,195.317413 258.335632,191.532043 255.311356,190.130646 
	C259.267090,179.895554 263.824829,169.940567 269.130951,160.347458 
	C270.387299,158.076035 269.935638,155.033356 272.680420,153.149811 
	C279.202728,155.957993 279.411530,160.829941 273.344391,166.649979 
	C275.474335,167.720459 278.133514,166.566650 280.113129,168.653992 
	C281.163513,171.627808 279.599335,173.647217 278.102234,175.979675 
	C275.143555,176.272507 273.238190,177.131027 273.789612,180.618622 
	C274.035126,181.093689 274.145721,181.278992 274.406677,181.754364 
	C274.629639,182.251099 274.702179,182.457764 274.837769,182.987976 
	C274.963135,183.973663 274.906616,184.628189 274.687897,185.594391 
	C274.377899,186.527542 274.089142,187.115295 273.671692,188.005173 
	C273.233307,188.892303 272.886047,189.453720 272.350708,190.288544 
	C270.971008,192.158463 270.630280,193.531754 273.044159,194.297668 
	C274.145172,194.647018 275.236298,195.048080 276.382385,196.086548 
	C278.143616,199.888397 279.576813,203.441818 279.241882,207.712769 
	C278.447479,208.515320 277.873138,208.998169 277.123962,209.706924 
z"/>
<path fill="#B81960" opacity="1.000000" stroke="none" 
	d="
M321.611267,135.998581 
	C322.002441,135.982193 322.470276,136.012558 322.702820,136.037842 
	C323.909058,141.356689 326.808716,145.882370 328.944458,150.689713 
	C333.041962,159.912704 337.662781,168.902161 341.826324,178.097260 
	C343.644501,182.112595 344.040497,186.691483 347.319977,190.160339 
	C348.663422,191.581360 348.563141,193.695679 345.312073,194.028458 
	C344.929871,194.058350 344.968262,194.022278 344.968994,194.048157 
	C344.780060,193.776962 344.550598,193.514755 344.026489,193.222443 
	C343.771851,193.157257 343.908295,193.155579 343.851044,193.192688 
	C343.470428,190.558884 341.321838,190.684174 339.147491,190.263977 
	C338.849060,190.136261 338.981812,190.066269 338.931213,190.121674 
	C338.361420,189.129669 337.331024,188.793106 336.046814,188.352814 
	C335.729004,188.338104 335.988037,188.209000 335.871307,188.294525 
	C334.861237,186.614639 333.037415,186.831924 331.196716,186.247452 
	C330.872101,186.101471 330.951050,186.069382 330.953796,186.111908 
	C330.575043,185.464493 329.839355,185.492798 328.885803,185.213287 
	C328.556641,185.131104 328.261230,185.191208 328.144409,185.095947 
	C327.803864,184.753403 327.564240,184.522598 327.087769,184.192200 
	C326.866821,184.076096 326.973236,184.017334 326.935303,184.064819 
	C326.608887,183.582123 326.532684,182.980072 326.090027,182.239349 
	C325.855103,182.056168 325.947052,182.047501 325.922791,182.086792 
	C325.470490,179.436707 323.374725,177.544174 322.354034,174.791473 
	C322.079895,174.348709 321.973145,174.172440 321.718872,173.729706 
	C321.393829,173.109344 321.224152,172.751724 320.933167,172.135651 
	C320.721039,171.712051 320.637512,171.543427 320.434998,171.121765 
	C320.164032,170.532715 320.011993,170.196671 319.736572,169.615997 
	C319.538391,169.205002 319.463684,169.038589 319.295898,168.615723 
	C319.094269,168.013763 318.985962,167.668167 318.778931,167.069031 
	C318.609711,166.647095 318.539642,166.478577 318.360504,166.057831 
	C318.100250,165.467560 317.942749,165.132462 317.636993,164.552399 
	C317.399200,164.136536 317.303619,163.968536 317.069000,163.542969 
	C316.493439,162.387192 315.983154,161.538666 315.052551,160.596161 
	C313.817413,159.146667 313.117920,157.804962 313.306519,155.835175 
	C314.904755,154.619247 314.923340,153.147552 315.016907,151.628922 
	C315.184296,148.912338 311.503296,144.857574 317.584778,144.005661 
	C317.870819,143.965591 317.885132,141.887085 318.001495,140.755402 
	C318.223785,138.592926 318.311920,136.349640 321.611267,135.998581 
z"/>
<path fill="#CB0F57" opacity="1.000000" stroke="none" 
	d="
M280.307312,169.220398 
	C278.126251,168.803818 276.391449,167.569824 274.296112,168.690414 
	C272.973663,169.397675 271.680786,168.565903 271.240723,167.082214 
	C270.861176,165.802490 271.572510,164.956772 272.683655,164.278519 
	C277.800507,161.155106 277.979858,157.789642 273.150085,153.291519 
	C274.127960,145.629211 278.371735,139.556335 281.723511,133.231216 
	C283.808289,129.297134 285.193848,125.161263 286.749939,121.122864 
	C288.229218,117.283875 291.024811,119.011627 293.211212,118.578392 
	C296.017059,118.022423 295.239532,120.961403 295.368286,122.073814 
	C295.771820,125.560226 298.082153,129.337296 292.477081,131.980209 
	C290.640228,132.846329 291.203461,138.952530 290.903473,142.681259 
	C290.875427,143.030243 292.707642,143.303055 293.065735,145.117828 
	C291.154541,149.379105 288.886536,152.815262 287.908813,157.223343 
	C287.713409,157.768188 287.617706,157.979980 287.330627,158.483032 
	C284.575287,161.588181 284.358551,165.511490 282.226959,168.905518 
	C281.548370,169.399155 281.086578,169.481583 280.307312,169.220398 
z"/>
<path fill="#FCE7F4" opacity="1.000000" stroke="none" 
	d="
M313.405182,155.445755 
	C313.996735,156.890259 314.596771,158.267090 315.421631,159.877411 
	C316.914154,160.921249 316.645660,162.592209 317.624939,163.925873 
	C317.658203,164.268967 317.650269,164.103958 317.618195,164.180084 
	C318.442627,164.328003 318.442566,165.034760 318.591400,165.945312 
	C318.582428,166.266129 318.591827,166.312057 318.569458,166.305054 
	C319.948425,166.539124 319.281067,167.746002 319.735779,168.814056 
	C319.894928,169.124771 319.939850,169.042557 319.893616,169.050003 
	C320.428314,169.406540 320.464386,170.034851 320.758087,170.867081 
	C320.881317,171.139877 320.919739,171.057053 320.874146,171.059631 
	C321.433533,171.404877 321.464783,172.045395 321.722107,172.905457 
	C321.809906,173.196777 321.843323,173.094818 321.792419,173.111740 
	C323.308746,174.826965 323.701355,177.070740 324.375000,179.462585 
	C324.228302,179.809326 324.042877,179.968842 323.950867,180.049408 
	C320.287445,180.547043 318.831635,177.751602 317.829895,175.375900 
	C314.759094,168.093109 312.507111,160.487900 308.303406,153.660553 
	C306.982666,151.515457 306.397705,148.708649 307.482727,145.653229 
	C311.342957,145.479675 310.157654,149.167923 311.776276,151.237000 
	C311.827057,151.625824 311.747986,151.814484 311.814789,151.891937 
	C312.619781,152.746704 313.099701,153.687805 313.530457,154.949341 
	C313.489380,155.264633 313.413635,155.378082 313.405182,155.445755 
z"/>
<path fill="#FCE7F4" opacity="1.000000" stroke="none" 
	d="
M293.273682,145.115631 
	C293.554840,144.698318 293.825043,144.264404 294.103027,143.562408 
	C294.352936,142.701752 294.507721,142.082443 294.913025,141.257599 
	C295.155518,141.049606 295.068024,141.049698 295.086304,141.089447 
	C295.592712,139.921738 295.792114,138.593155 296.824280,137.272278 
	C297.032471,137.017990 296.996643,137.007263 297.011780,137.019836 
	C297.281464,136.937088 297.535980,136.841751 298.110840,136.999176 
	C300.331055,140.924057 298.370544,144.629990 296.849487,147.193939 
	C294.135895,151.768066 293.897369,158.297928 287.330444,160.355621 
	C286.579651,159.748962 286.468597,159.235947 286.910828,158.380951 
	C287.209259,158.094437 287.110168,158.057678 287.129333,158.106918 
	C288.172424,153.599335 290.964081,149.812500 292.942230,145.333130 
	C293.241150,145.125137 293.262787,145.099045 293.273682,145.115631 
z"/>
<path fill="#B81960" opacity="1.000000" stroke="none" 
	d="
M311.869873,151.201767 
	C310.729889,149.562698 309.632690,147.499588 308.066406,144.994446 
	C307.558136,144.352997 307.518951,144.153564 307.768036,143.444138 
	C311.009216,144.728867 311.502075,147.733063 311.869873,151.201767 
z"/>
<path fill="#FCE7F4" opacity="1.000000" stroke="none" 
	d="
M299.934937,130.360870 
	C300.586426,130.139557 300.916840,130.149933 301.495270,130.118973 
	C303.099945,131.262344 303.300171,132.862045 303.178955,134.843933 
	C301.988403,135.932922 300.924103,135.996964 299.443787,135.440948 
	C297.867371,133.530670 299.199341,132.125153 299.934937,130.360870 
z"/>
<path fill="#B81960" opacity="1.000000" stroke="none" 
	d="
M303.160645,135.314041 
	C302.764923,133.412369 302.304901,132.101196 301.793762,130.445068 
	C304.751160,131.533386 304.843262,134.704819 305.737335,137.750275 
	C305.067993,138.221542 304.687195,138.100769 304.099426,137.703857 
	C303.744507,137.350906 303.623016,137.190414 303.374023,136.757401 
	C303.196472,136.291412 303.146423,136.097977 303.160645,135.314041 
z"/>
<path fill="#B81960" opacity="1.000000" stroke="none" 
	d="
M299.906342,130.207916 
	C299.789520,131.413864 299.322327,132.721008 298.902802,134.610748 
	C298.929291,135.361389 298.908051,135.529449 298.779724,135.929443 
	C298.562561,136.291962 298.452454,136.422546 298.101105,136.639404 
	C297.859863,136.725662 297.431244,136.846176 297.229095,136.939301 
	C297.133148,134.514160 297.540344,132.109131 299.906342,130.207916 
z"/>
<path fill="#B81960" opacity="1.000000" stroke="none" 
	d="
M314.298218,128.518021 
	C313.354919,127.557564 312.746643,126.696877 314.244873,126.194923 
	C315.075226,125.916733 315.986694,126.266502 316.234558,127.105492 
	C316.637207,128.468414 315.630676,128.675766 314.298218,128.518021 
z"/>
<path fill="#B81960" opacity="1.000000" stroke="none" 
	d="
M296.713806,137.169754 
	C296.563171,138.250610 296.093903,139.483231 295.364594,140.922516 
	C294.913910,139.649536 294.981018,138.257233 296.713806,137.169754 
z"/>
<path fill="#CB0F57" opacity="1.000000" stroke="none" 
	d="
M293.005707,111.998131 
	C293.885498,112.133820 294.967621,111.682472 295.487213,112.802002 
	C295.569366,112.979027 295.372345,113.487473 295.202148,113.546173 
	C294.269714,113.867744 293.782654,113.177208 293.139465,112.291153 
	C293.000061,112.010498 293.000092,111.999832 293.005707,111.998131 
z"/>
<path fill="#B81960" opacity="1.000000" stroke="none" 
	d="
M313.636719,154.937134 
	C312.968842,154.379990 312.448303,153.495346 311.904663,152.290054 
	C313.041992,152.470306 313.908630,153.182861 313.636719,154.937134 
z"/>
<path fill="#D50B55" opacity="1.000000" stroke="none" 
	d="
M253.668594,194.006775 
	C254.040710,194.532043 254.119568,195.081451 254.198425,195.630859 
	C253.643143,195.494629 253.087875,195.358398 252.279037,195.121094 
	C252.475433,194.690323 252.925385,194.360611 253.668594,194.006775 
z"/>
<path fill="#B81960" opacity="1.000000" stroke="none" 
	d="
M305.885376,138.099579 
	C306.906921,138.519531 307.003082,139.394104 306.728027,140.745789 
	C305.457214,140.797729 305.258423,139.988251 305.386658,138.744400 
	C305.487213,138.431732 305.752197,138.209747 305.885376,138.099579 
z"/>
<path fill="#B81960" opacity="1.000000" stroke="none" 
	d="
M294.862152,141.217438 
	C294.975708,141.662689 294.795929,142.275787 294.363495,143.091614 
	C294.263489,142.657974 294.416138,142.021622 294.862152,141.217438 
z"/>
<path fill="#B81960" opacity="1.000000" stroke="none" 
	d="
M306.997101,141.007462 
	C307.358459,141.434769 307.669037,141.896957 308.017975,142.646637 
	C308.056335,142.934143 307.931305,143.048035 307.867004,143.102936 
	C306.932770,143.099426 306.594666,142.562378 306.697723,141.439819 
	C306.847778,141.116257 306.946320,141.042343 306.997101,141.007462 
z"/>
<path fill="#B81960" opacity="1.000000" stroke="none" 
	d="
M318.164673,129.237244 
	C318.552216,129.165009 319.096100,129.337067 319.785706,129.761185 
	C319.394623,129.836014 318.857819,129.658783 318.164673,129.237244 
z"/>
<path fill="#D50B55" opacity="1.000000" stroke="none" 
	d="
M253.978821,193.250519 
	C254.320312,193.180725 254.706039,193.332336 254.152817,193.892822 
	C253.981476,193.972137 253.978485,193.491058 253.978821,193.250519 
z"/>
<path fill="#FFFFFF" opacity="1.000000" stroke="none" 
	d="
M297.907471,137.156006 
	C297.859863,136.725662 297.895447,136.315826 298.021179,136.153046 
	C298.323212,135.722076 298.523682,135.473419 298.767578,135.005493 
	C298.786713,134.766708 298.803497,134.739990 298.786621,134.731155 
	C299.960175,134.776352 301.150604,134.830399 302.782959,134.803986 
	C303.224945,134.723526 303.192688,134.742249 303.200470,134.756775 
	C303.147369,135.128586 303.268646,135.406418 303.712189,135.799133 
	C303.852325,135.993484 304.101562,136.312393 304.116333,136.514221 
	C305.043457,139.396378 305.418671,142.309067 307.743103,144.742615 
	C307.993286,144.998520 308.000732,144.999924 307.999969,145.005157 
	C308.064667,149.326462 308.692505,153.333008 311.671722,156.894516 
	C314.970123,160.837540 315.651428,166.149399 317.512726,170.802841 
	C318.925171,174.334076 320.417908,177.406006 323.529724,180.012604 
	C324.293091,183.264679 324.003906,186.831284 328.500946,187.449448 
	C328.899292,187.504196 329.399445,188.370087 329.468597,188.908539 
	C329.575745,189.742783 328.746674,189.855194 328.118713,189.952499 
	C326.857391,190.147980 325.491852,189.742996 324.115814,190.938354 
	C323.457642,191.191727 323.035004,191.130020 322.316406,190.942200 
	C317.892181,187.418839 312.580139,188.106461 307.873505,187.241776 
	C300.055298,185.805435 292.117279,187.522827 284.329224,188.996994 
	C283.044281,189.240219 281.915985,190.081512 280.579041,191.175079 
	C279.770691,191.567978 279.273071,191.642853 278.402557,191.486328 
	C274.848633,186.802612 277.041260,182.543625 279.079041,178.487640 
	C281.419617,173.828979 282.670654,168.690277 285.534973,164.270477 
	C285.945709,163.636673 285.771545,162.658356 286.028137,161.495316 
	C286.241272,160.925430 286.355774,160.708633 286.746948,160.249542 
	C287.897583,159.604462 289.288971,159.420349 289.565887,158.765167 
	C292.522064,151.771286 297.798981,145.681076 297.907471,137.156006 
z"/>
<path fill="#B81960" opacity="1.000000" stroke="none" 
	d="
M318.760986,192.244019 
	C322.747192,193.324707 327.920990,192.222488 328.300842,198.782059 
	C328.488983,202.030624 331.543335,199.962860 333.104523,199.606522 
	C335.915283,198.964966 339.832428,201.603348 338.644104,204.039368 
	C337.042725,207.322113 337.854767,208.995010 340.560242,210.658524 
	C342.149780,211.635895 342.294739,212.992050 341.028442,214.411118 
	C339.961792,215.606506 338.611786,216.632263 337.148468,215.428452 
	C329.921844,209.483459 320.893311,207.717773 312.225342,204.297562 
	C314.811432,200.542282 314.452728,195.261230 318.760986,192.244019 
z"/>
<path fill="#CB0F57" opacity="1.000000" stroke="none" 
	d="
M279.409515,208.021698 
	C278.017578,204.280533 277.013336,200.528595 276.071594,196.074280 
	C276.430969,194.563278 276.521881,193.684479 277.221436,192.680878 
	C282.979706,190.837524 288.294281,188.226517 294.658447,189.176132 
	C295.758545,189.060471 296.496307,189.052658 297.602844,189.055710 
	C301.189209,193.429672 298.602875,197.789932 297.731354,202.057907 
	C297.544739,202.971878 298.320221,202.904755 298.072510,203.692566 
	C291.569580,203.703140 285.784729,206.315796 279.409515,208.021698 
z"/>
<path fill="#C0165B" opacity="1.000000" stroke="none" 
	d="
M298.460419,203.997772 
	C297.916931,203.094864 294.065094,202.785278 297.580292,201.328156 
	C295.943848,197.420944 299.484070,193.702179 297.985779,189.433533 
	C304.978485,188.203522 311.557281,190.294571 318.597412,192.000763 
	C318.543823,194.662674 315.245819,196.191971 316.583923,199.834290 
	C317.174774,201.442566 313.338898,201.603241 312.148590,203.712967 
	C307.635864,204.017807 303.280701,204.010544 298.460419,203.997772 
z"/>
<path fill="#FCE7F4" opacity="1.000000" stroke="none" 
	d="
M280.278076,191.116364 
	C280.438690,188.372894 282.791138,187.599640 284.428741,187.486099 
	C293.757538,186.839340 303.038483,184.096878 312.509674,187.488419 
	C315.481720,188.552704 319.361908,186.918060 321.947784,190.478607 
	C313.114624,188.687027 304.152588,187.119064 294.484619,188.226685 
	C289.614807,189.661789 285.132568,190.694733 280.278076,191.116364 
z"/>
<path fill="#B81960" opacity="1.000000" stroke="none" 
	d="
M279.680481,190.980255 
	C284.400360,189.980911 288.820007,189.125778 293.636963,188.311066 
	C294.181213,188.595581 294.382416,188.780701 294.829315,188.987579 
	C289.172882,190.522400 283.324982,191.976517 277.233459,193.710770 
	C276.969116,194.587982 276.785614,195.125015 276.191559,195.788666 
	C275.982269,195.989502 275.994690,195.999237 275.991089,195.990463 
	C274.876892,195.777359 273.773041,195.520126 272.654572,195.377823 
	C267.783203,194.758133 269.152313,192.535843 271.854858,190.241501 
	C273.627014,193.707611 275.935822,190.032242 277.779083,191.291183 
	C278.514526,191.308456 278.947388,191.216461 279.680481,190.980255 
z"/>
<path fill="#AC2264" opacity="1.000000" stroke="none" 
	d="
M324.451477,179.998489 
	C323.431213,177.820938 322.634125,175.832550 321.789276,173.486404 
	C324.479492,175.177155 325.803223,177.954132 325.932159,181.727661 
	C325.490570,181.479950 325.082611,180.833801 324.451477,179.998489 
z"/>
<path fill="#AC2264" opacity="1.000000" stroke="none" 
	d="
M339.024200,190.414581 
	C341.127106,189.631775 343.975281,187.886597 343.855652,192.847565 
	C342.262299,192.384171 340.730835,191.538544 339.024200,190.414581 
z"/>
<path fill="#AC2264" opacity="1.000000" stroke="none" 
	d="
M331.095703,186.361023 
	C332.639130,186.055313 334.564331,185.507767 335.704224,187.994843 
	C334.276154,187.793564 332.797760,187.207077 331.095703,186.361023 
z"/>
<path fill="#AC2264" opacity="1.000000" stroke="none" 
	d="
M335.901978,188.596909 
	C336.996490,188.046219 338.302338,187.643250 338.868042,189.797791 
	C337.945374,189.736618 337.010162,189.296158 335.901978,188.596909 
z"/>
<path fill="#AC2264" opacity="1.000000" stroke="none" 
	d="
M325.876770,182.361099 
	C326.211761,182.528809 326.568420,183.001450 326.911224,183.793182 
	C326.564392,183.630188 326.231415,183.148102 325.876770,182.361099 
z"/>
<path fill="#AC2264" opacity="1.000000" stroke="none" 
	d="
M328.788818,185.378281 
	C329.233917,185.269485 329.911194,185.407852 330.772491,185.850327 
	C330.311340,185.978104 329.666168,185.801788 328.788818,185.378281 
z"/>
<path fill="#AC2264" opacity="1.000000" stroke="none" 
	d="
M326.935638,184.352570 
	C327.167877,184.233429 327.468964,184.390747 327.898804,184.774384 
	C327.686554,184.876816 327.345490,184.752930 326.935638,184.352570 
z"/>
<path fill="#AC2264" opacity="1.000000" stroke="none" 
	d="
M343.878723,193.408463 
	C344.093323,193.299454 344.414825,193.441666 344.852997,193.828949 
	C344.641663,193.935913 344.313599,193.797791 343.878723,193.408463 
z"/>
<path fill="#FCE7F4" opacity="1.000000" stroke="none" 
	d="
M312.915161,234.115067 
	C312.761475,235.726944 312.152740,236.725571 310.778625,236.626053 
	C310.053253,236.573502 309.949921,235.654694 310.157715,235.046997 
	C310.598022,233.759354 311.113281,232.388718 312.915161,234.115067 
z"/>
<path fill="#C74347" opacity="1.000000" stroke="none" 
	d="
M315.223999,233.149780 
	C315.458252,233.525055 315.387482,233.964462 315.204681,234.718811 
	C314.246948,234.502319 313.933411,233.920120 315.223999,233.149780 
z"/>
<path fill="#FCE7F4" opacity="1.000000" stroke="none" 
	d="
M267.979309,236.532440 
	C266.898224,236.724808 265.474030,237.569305 265.216980,235.781677 
	C265.037842,234.535889 265.851837,233.552887 267.033600,233.247055 
	C268.608551,232.839462 269.038116,233.797882 268.770935,235.550873 
	C268.405487,235.942642 268.186554,236.086212 267.979309,236.532440 
z"/>
<path fill="#FCE7F4" opacity="1.000000" stroke="none" 
	d="
M246.193344,231.488464 
	C246.771698,232.372421 247.479172,233.373428 246.005402,233.793808 
	C245.628296,233.901382 245.130875,233.587112 244.688721,233.466660 
	C245.088333,232.800476 245.487961,232.134308 246.193344,231.488464 
z"/>
<path fill="#FCE7F4" opacity="1.000000" stroke="none" 
	d="
M365.103729,235.346405 
	C364.144226,236.371719 363.282593,237.688522 362.263458,236.282913 
	C361.542328,235.288391 362.073700,233.926712 363.216766,233.426254 
	C364.542023,232.846039 365.943573,232.773239 365.103729,235.346405 
z"/>
<path fill="#FCE7F4" opacity="1.000000" stroke="none" 
	d="
M342.309845,236.461655 
	C341.983795,234.529648 342.330902,233.201752 344.302795,233.139023 
	C344.964539,233.117966 345.683624,233.470932 345.481781,234.273895 
	C345.107849,235.761200 344.403168,237.017105 342.309845,236.461655 
z"/>
<path fill="#B81960" opacity="1.000000" stroke="none" 
	d="
M279.975830,169.363525 
	C280.432068,168.988495 280.849030,168.970551 281.825104,169.193268 
	C281.282043,175.449539 278.336395,180.671509 274.627319,185.911865 
	C273.963013,185.226639 273.984100,184.489471 274.009613,183.383560 
	C274.140137,182.845703 274.266205,182.676590 274.203674,182.253403 
	C274.015137,181.999313 274.001221,181.997711 274.006470,181.991974 
	C273.860413,179.715454 275.306458,178.133575 276.716919,176.224091 
	C277.989471,173.934082 278.962982,171.827347 279.975830,169.363525 
z"/>
<path fill="#CB0F57" opacity="1.000000" stroke="none" 
	d="
M276.866028,175.738464 
	C276.488159,178.005402 276.321686,180.144867 274.208069,181.711609 
	C270.894653,181.012894 271.489197,178.867096 272.985596,177.241821 
	C273.778290,176.380859 273.746735,172.206131 276.866028,175.738464 
z"/>
<path fill="#B81960" opacity="1.000000" stroke="none" 
	d="
M273.524231,187.936813 
	C273.126923,187.421005 273.300903,186.870193 273.708374,186.141602 
	C273.941925,185.963821 274.079254,186.064194 274.146545,186.116196 
	C274.583679,186.773987 274.499359,187.348801 273.524231,187.936813 
z"/>
<path fill="#B81960" opacity="1.000000" stroke="none" 
	d="
M272.061554,190.038986 
	C272.139648,189.412308 272.315369,188.868713 272.722046,188.148468 
	C272.952942,187.971817 273.142487,188.115540 273.235962,188.189102 
	C273.590027,188.935120 273.461121,189.528839 272.662994,190.166687 
	C272.357666,190.284348 272.159180,190.122070 272.061554,190.038986 
z"/>
<path fill="#CB0F57" opacity="1.000000" stroke="none" 
	d="
M274.011444,182.253204 
	C274.189514,182.167587 274.379913,182.323669 274.524872,182.514313 
	C274.554199,182.552887 274.411682,182.722122 274.181213,182.922974 
	C274.011932,182.845581 274.009857,182.676331 274.011444,182.253204 
z"/>
<path fill="#AC2264" opacity="1.000000" stroke="none" 
	d="
M317.742188,163.906006 
	C317.030151,163.105377 316.402069,161.941803 315.710266,160.444550 
	C317.264740,160.688660 317.629944,162.062195 317.742188,163.906006 
z"/>
<path fill="#AC2264" opacity="1.000000" stroke="none" 
	d="
M319.926819,168.757477 
	C319.474701,168.395447 319.054474,167.666138 318.590637,166.617447 
	C319.903900,166.397415 319.954224,167.378342 319.926819,168.757477 
z"/>
<path fill="#AC2264" opacity="1.000000" stroke="none" 
	d="
M321.850769,172.868561 
	C321.492157,172.692337 321.174408,172.187897 320.842621,171.372833 
	C321.182922,171.554932 321.537292,172.047638 321.850769,172.868561 
z"/>
<path fill="#AC2264" opacity="1.000000" stroke="none" 
	d="
M320.900635,170.817307 
	C320.554321,170.649368 320.227356,170.158875 319.873840,169.362915 
	C320.204865,169.536545 320.562408,170.015640 320.900635,170.817307 
z"/>
<path fill="#AC2264" opacity="1.000000" stroke="none" 
	d="
M318.691528,165.932480 
	C318.279388,165.788803 317.976318,165.311478 317.629700,164.545181 
	C318.400299,164.333466 318.812775,164.774094 318.691528,165.932480 
z"/>
<path fill="#B81960" opacity="1.000000" stroke="none" 
	d="
M292.895447,145.213135 
	C291.394897,149.327744 289.548645,153.530350 287.425476,157.944565 
	C286.858002,152.992599 289.756653,149.169037 292.895447,145.213135 
z"/>
<path fill="#B81960" opacity="1.000000" stroke="none" 
	d="
M287.021790,159.685425 
	C287.023651,160.007278 286.791260,160.208893 286.800323,160.362457 
	C286.367004,163.778275 285.150787,166.685852 282.500946,169.107300 
	C282.129944,169.108261 282.010498,169.002777 281.950073,168.948914 
	C282.918396,165.143082 282.913696,160.943619 286.845428,158.192841 
	C287.146179,158.517487 287.083069,158.940536 287.021790,159.685425 
z"/>
<path fill="#FCE7F4" opacity="1.000000" stroke="none" 
	d="
M307.990448,144.689117 
	C304.477722,143.682846 303.838684,140.840866 304.086578,137.133972 
	C304.463562,137.144165 304.796051,137.572266 305.307861,138.216049 
	C305.782074,139.196411 306.076904,139.961075 306.609772,140.921005 
	C307.010773,141.676132 307.173767,142.236023 307.569702,142.976868 
	C307.864319,143.565125 307.925964,143.972427 307.990448,144.689117 
z"/>
<path fill="#FCE7F4" opacity="1.000000" stroke="none" 
	d="
M303.862671,135.738251 
	C303.633087,135.753891 303.413818,135.514282 303.201416,135.022995 
	C303.429840,135.008545 303.651398,135.245789 303.862671,135.738251 
z"/>
<path fill="#FCE7F4" opacity="1.000000" stroke="none" 
	d="
M298.565613,134.893616 
	C298.711151,135.080368 298.635590,135.394028 298.353516,135.848969 
	C298.212799,135.667023 298.278656,135.343765 298.565613,134.893616 
z"/>
<path fill="#FCE7F4" opacity="1.000000" stroke="none" 
	d="
M282.081543,169.468903 
	C283.509399,166.408646 284.888824,163.709015 286.538818,160.762695 
	C287.173401,163.359772 285.911530,165.678894 285.030457,168.307465 
	C282.557831,175.684128 276.178833,181.928070 278.059265,191.016296 
	C276.035309,192.279251 273.988892,193.158035 271.944183,194.036102 
	C270.759949,192.743073 272.269196,191.941589 272.294983,190.616852 
	C272.649231,189.799561 272.940765,189.314774 273.280853,188.546326 
	C273.607544,187.759720 273.885681,187.256760 274.188843,186.460999 
	C276.820282,180.721985 279.426727,175.275772 282.081543,169.468903 
z"/>
<path fill="#D50B55" opacity="1.000000" stroke="none" 
	d="
M276.277771,195.963074 
	C276.154175,195.434708 276.326111,194.879929 276.743896,194.158020 
	C278.102081,194.907333 277.848694,195.531387 276.277771,195.963074 
z"/>
</svg>