<svg version="1.1" id="Layer_1" xmlns="http://www.w3.org/2000/svg" xmlns:xlink="http://www.w3.org/1999/xlink" x="0px" y="0px"
	 width="80px" viewbox="0 0 299 168" enable-background="new 0 0 299 168" xml:space="preserve">
<path fill="#1DE783" opacity="1.000000" stroke="none" 
	d="
M190.000000,169.000000 
	C126.666672,169.000000 63.833347,169.000000 1.000017,169.000000 
	C1.000011,113.000015 1.000011,57.000027 1.000006,1.000032 
	C100.666634,1.000021 200.333267,1.000021 299.999939,1.000011 
	C299.999939,56.999969 299.999939,112.999939 299.999969,168.999954 
	C263.500000,169.000000 227.000000,169.000000 190.000000,169.000000 
M107.687531,68.724907 
	C107.553177,79.563332 107.403465,90.401642 107.328728,101.240479 
	C107.324890,101.796654 107.963997,102.357269 108.739532,103.471832 
	C110.209610,110.552589 114.650223,115.112915 121.479042,116.668945 
	C126.886848,117.901176 132.559143,118.542336 138.105011,118.490227 
	C153.598297,118.344635 158.832977,114.595741 163.203491,101.269257 
	C163.319717,90.614403 163.445236,79.959602 163.516922,69.304451 
	C163.519669,68.894989 163.004379,68.482040 161.830597,68.000870 
	C156.169113,68.344841 150.507629,68.688812 144.474060,69.761253 
	C144.575745,79.156883 144.677429,88.552505 144.650116,98.708908 
	C141.094208,102.394661 131.276245,102.786385 126.937386,98.427292 
	C126.958519,90.682709 127.071510,82.936630 126.945999,75.194420 
	C126.907272,72.805603 126.218307,70.427322 124.914825,67.984283 
	C119.325768,68.002899 113.736717,68.021523 107.687531,68.724907 
M222.941696,67.975723 
	C217.362732,68.001701 211.783768,68.027679 205.729874,68.728783 
	C205.487000,78.100471 205.180771,87.471329 205.058380,96.844589 
	C205.035782,98.575401 205.756363,100.315918 206.576279,102.621437 
	C207.962418,110.025131 212.291107,115.034950 219.554855,116.680954 
	C224.934616,117.900040 230.572891,118.538864 236.088089,118.492554 
	C251.472549,118.363388 256.677399,114.696548 261.215118,101.443008 
	C261.330444,90.736320 261.455078,80.029694 261.525604,69.322701 
	C261.528320,68.912094 261.009338,68.498047 259.834076,68.004921 
	C254.253082,68.011429 248.672104,68.017944 242.647079,68.720100 
	C242.701233,78.464386 242.755371,88.208672 242.702103,98.722054 
	C239.530594,101.935509 228.606873,102.836197 225.256332,100.073746 
	C224.691483,99.608017 224.508713,98.678833 224.524185,97.237206 
	C224.682999,90.534264 224.978302,83.830521 224.938995,77.128738 
	C224.921219,74.095993 224.238541,71.067139 222.941696,67.975723 
M95.337318,80.427597 
	C92.401581,72.223732 87.257782,68.276199 78.645935,68.025726 
	C72.229637,67.839104 65.803558,67.988945 58.929691,67.988945 
	C58.929691,60.697495 58.929691,53.277916 58.929691,45.629715 
	C53.087990,45.629715 47.698067,45.629715 42.002003,45.629715 
	C42.002003,69.624214 42.002003,93.331535 42.002003,117.147995 
	C47.774731,117.147995 53.280815,117.147995 59.023514,117.147995 
	C59.023514,108.413834 59.012291,100.103844 59.027023,91.793900 
	C59.039055,85.006088 59.053661,85.042702 65.989136,84.877678 
	C67.438530,84.843201 68.908554,84.122704 70.316666,84.259140 
	C72.602547,84.480629 74.845131,85.148872 77.061142,86.612236 
	C77.040649,94.674576 76.940239,102.738045 77.055054,110.798462 
	C77.084274,112.849716 77.796974,114.891235 78.842453,117.297264 
	C84.581032,117.189850 90.319618,117.082443 96.465004,116.262146 
	C96.593033,105.221184 96.741394,94.180344 96.803589,83.139008 
	C96.807762,82.399063 96.159843,81.655434 95.337318,80.427597 
M193.116837,113.196671 
	C193.116837,90.773102 193.116837,68.349541 193.116837,45.638000 
	C187.213669,45.638000 181.814606,45.638000 176.081818,45.638000 
	C175.980850,47.799969 175.811172,49.768002 175.809082,51.736210 
	C175.788940,70.705879 175.796982,89.675575 175.796997,108.645264 
	C175.796997,119.177124 177.846771,120.731743 188.390747,118.191406 
	C189.190201,117.998802 190.233002,118.027718 190.727325,117.525314 
	C191.686981,116.549965 192.337036,115.269989 193.116837,113.196671 
z"/>
<path fill="#FAFEFC" opacity="1.000000" stroke="none" 
	d="
M77.105995,85.628525 
	C74.845131,85.148872 72.602547,84.480629 70.316666,84.259140 
	C68.908554,84.122704 67.438530,84.843201 65.989136,84.877678 
	C59.053661,85.042702 59.039055,85.006088 59.027023,91.793900 
	C59.012291,100.103844 59.023514,108.413834 59.023514,117.147995 
	C53.280815,117.147995 47.774731,117.147995 42.002003,117.147995 
	C42.002003,93.331535 42.002003,69.624214 42.002003,45.629715 
	C47.698067,45.629715 53.087990,45.629715 58.929691,45.629715 
	C58.929691,53.277916 58.929691,60.697495 58.929691,67.988945 
	C65.803558,67.988945 72.229637,67.839104 78.645935,68.025726 
	C87.257782,68.276199 92.401581,72.223732 95.571823,81.145958 
	C95.890282,93.567894 95.974236,105.271461 96.058197,116.975037 
	C90.319618,117.082443 84.581032,117.189850 78.553497,116.654564 
	C78.272095,107.747696 78.350479,99.482529 78.233185,91.220131 
	C78.206650,89.351303 77.499725,87.492142 77.105995,85.628525 
z"/>
<path fill="#F9FEFB" opacity="1.000000" stroke="none" 
	d="
M260.731506,102.157799 
	C256.677399,114.696548 251.472549,118.363388 236.088089,118.492554 
	C230.572891,118.538864 224.934616,117.900040 219.554855,116.680954 
	C212.291107,115.034950 207.962418,110.025131 206.397385,101.866364 
	C206.213928,90.092079 206.209366,79.072876 206.204803,68.053665 
	C211.783768,68.027679 217.362732,68.001701 223.429871,68.471413 
	C223.995148,78.632660 224.072281,88.298225 224.149414,97.963783 
	C224.508713,98.678833 224.691483,99.608017 225.256332,100.073746 
	C228.606873,102.836197 239.530594,101.935509 242.848999,97.880173 
	C243.027634,87.367012 243.059372,77.695732 243.091110,68.024460 
	C248.672104,68.017944 254.253082,68.011429 260.299805,68.506813 
	C260.754181,80.058403 260.742828,91.108101 260.731506,102.157799 
z"/>
<path fill="#F9FEFB" opacity="1.000000" stroke="none" 
	d="
M162.688782,101.914856 
	C158.832977,114.595741 153.598297,118.344635 138.105011,118.490227 
	C132.559143,118.542336 126.886848,117.901176 121.479042,116.668945 
	C114.650223,115.112915 110.209610,110.552589 108.520126,102.730988 
	C108.249702,90.673485 108.198685,79.356812 108.147659,68.040146 
	C113.736717,68.021523 119.325768,68.002899 125.401718,68.478996 
	C125.892799,76.745193 125.821320,84.517906 125.946518,92.287437 
	C125.984894,94.668556 126.562363,97.040985 126.892952,99.417397 
	C131.276245,102.786385 141.094208,102.394661 144.812607,97.872345 
	C144.932114,87.701447 144.889130,78.367111 144.846130,69.032776 
	C150.507629,68.688812 156.169113,68.344841 162.301407,68.498962 
	C162.744415,79.969658 162.716599,90.942253 162.688782,101.914856 
z"/>
<path fill="#FBFFFD" opacity="1.000000" stroke="none" 
	d="
M193.116104,113.656448 
	C192.337036,115.269989 191.686981,116.549965 190.727325,117.525314 
	C190.233002,118.027718 189.190201,117.998802 188.390747,118.191406 
	C177.846771,120.731743 175.796997,119.177124 175.796997,108.645264 
	C175.796982,89.675575 175.788940,70.705879 175.809082,51.736210 
	C175.811172,49.768002 175.980850,47.799969 176.081818,45.638000 
	C181.814606,45.638000 187.213669,45.638000 193.116837,45.638000 
	C193.116837,68.349541 193.116837,90.773102 193.116104,113.656448 
z"/>
<path fill="#00E67E" opacity="1.000000" stroke="none" 
	d="
M96.261597,116.618591 
	C95.974236,105.271461 95.890282,93.567894 95.810768,81.388916 
	C96.159843,81.655434 96.807762,82.399063 96.803589,83.139008 
	C96.741394,94.180344 96.593033,105.221184 96.261597,116.618591 
z"/>
<path fill="#00E67B" opacity="1.000000" stroke="none" 
	d="
M107.917595,68.382523 
	C108.198685,79.356812 108.249702,90.673485 108.302246,102.452988 
	C107.963997,102.357269 107.324890,101.796654 107.328728,101.240479 
	C107.403465,90.401642 107.553177,79.563332 107.917595,68.382523 
z"/>
<path fill="#00E67C" opacity="1.000000" stroke="none" 
	d="
M162.946136,101.592056 
	C162.716599,90.942253 162.744415,79.969658 162.751343,68.533890 
	C163.004379,68.482040 163.519669,68.894989 163.516922,69.304451 
	C163.445236,79.959602 163.319717,90.614403 162.946136,101.592056 
z"/>
<path fill="#00E67B" opacity="1.000000" stroke="none" 
	d="
M205.967331,68.391220 
	C206.209366,79.072876 206.213928,90.092079 206.176208,101.581619 
	C205.756363,100.315918 205.035782,98.575401 205.058380,96.844589 
	C205.180771,87.471329 205.487000,78.100471 205.967331,68.391220 
z"/>
<path fill="#00E67E" opacity="1.000000" stroke="none" 
	d="
M260.973328,101.800400 
	C260.742828,91.108101 260.754181,80.058403 260.749481,68.547150 
	C261.009338,68.498047 261.528320,68.912094 261.525604,69.322701 
	C261.455078,80.029694 261.330444,90.736320 260.973328,101.800400 
z"/>
<path fill="#00E67B" opacity="1.000000" stroke="none" 
	d="
M126.915169,98.922348 
	C126.562363,97.040985 125.984894,94.668556 125.946518,92.287437 
	C125.821320,84.517906 125.892799,76.745193 125.857841,68.508965 
	C126.218307,70.427322 126.907272,72.805603 126.945999,75.194420 
	C127.071510,82.936630 126.958519,90.682709 126.915169,98.922348 
z"/>
<path fill="#00E67E" opacity="1.000000" stroke="none" 
	d="
M77.083572,86.120377 
	C77.499725,87.492142 78.206650,89.351303 78.233185,91.220131 
	C78.350479,99.482529 78.272095,107.747696 78.230087,116.474548 
	C77.796974,114.891235 77.084274,112.849716 77.055054,110.798462 
	C76.940239,102.738045 77.040649,94.674576 77.083572,86.120377 
z"/>
<path fill="#00E67B" opacity="1.000000" stroke="none" 
	d="
M224.336792,97.600494 
	C224.072281,88.298225 223.995148,78.632660 223.887772,68.501816 
	C224.238541,71.067139 224.921219,74.095993 224.938995,77.128738 
	C224.978302,83.830521 224.682999,90.534264 224.336792,97.600494 
z"/>
<path fill="#00E67B" opacity="1.000000" stroke="none" 
	d="
M242.869095,68.372284 
	C243.059372,77.695732 243.027634,87.367012 242.902695,97.495621 
	C242.755371,88.208672 242.701233,78.464386 242.869095,68.372284 
z"/>
<path fill="#00E67E" opacity="1.000000" stroke="none" 
	d="
M144.660095,69.397018 
	C144.889130,78.367111 144.932114,87.701447 144.877106,97.491959 
	C144.677429,88.552505 144.575745,79.156883 144.660095,69.397018 
z"/>
</svg>