<svg version="1.1" id="Layer_3" xmlns="http://www.w3.org/2000/svg" xmlns:xlink="http://www.w3.org/1999/xlink" x="0px" y="0px"
	 width="300px" viewBox="0 0 318 159" enable-background="new 0 0 318 159" xml:space="preserve">
<path fill="#FEFEFD" opacity="1.000000" stroke="none" 
	d="
M245.000000,160.000000 
	C163.333359,160.000000 82.166702,160.000000 1.000044,160.000000 
	C1.000029,107.000031 1.000029,54.000065 1.000015,1.000072 
	C106.999939,1.000048 212.999878,1.000048 318.999878,1.000024 
	C318.999908,53.999928 318.999908,106.999855 318.999939,159.999893 
	C294.500000,160.000000 270.000000,160.000000 245.000000,160.000000 
M253.154480,59.029369 
	C251.417465,63.396774 251.635590,65.518936 254.652176,67.927864 
	C256.506683,68.006828 258.361206,68.085793 260.791748,69.171844 
	C270.373993,69.292824 279.956238,69.413803 289.596924,69.554497 
	C290.640472,69.739044 291.684052,69.923584 293.620636,69.997742 
	C294.408997,68.918945 295.869751,67.847580 295.881775,66.760223 
	C296.002197,55.848537 295.884674,44.934223 295.979187,33.244644 
	C296.027100,29.697922 294.071838,28.112570 290.732910,28.101498 
	C279.652679,28.064754 268.572052,28.054026 257.491943,28.108461 
	C253.958771,28.125820 251.928482,29.819672 252.027832,33.606529 
	C252.144775,38.064983 252.180649,42.525562 252.124329,47.692169 
	C252.126511,50.432640 252.020691,53.180874 252.216599,55.907425 
	C252.258774,56.494488 253.389923,57.003307 254.020340,57.482967 
	C254.020340,57.482967 253.955643,57.474831 253.245728,58.499252 
	C253.482025,58.841057 253.718323,59.182861 254.019608,59.516785 
	C254.019608,59.516785 254.018753,59.451336 253.154480,59.029369 
M262.857147,149.301895 
	C266.243469,149.228394 269.629761,149.154907 273.659821,149.298248 
	C274.100830,149.225952 274.541840,149.153671 275.908356,149.253723 
	C281.944244,149.196289 287.980133,149.138855 294.908081,149.222992 
	C295.274170,148.588379 295.955841,147.955551 295.959473,147.318863 
	C296.025360,135.741882 296.120239,124.162132 295.875580,112.590004 
	C295.843964,111.095055 293.965607,109.639153 292.032898,107.958061 
	C279.710480,108.026588 267.388092,108.095108 254.309769,108.252037 
	C253.552368,109.966064 252.171036,111.668617 252.139252,113.395988 
	C251.938797,124.298347 251.967529,135.207306 252.138214,146.110687 
	C252.156799,147.298233 253.564255,148.464020 254.936111,149.937561 
	C257.276398,149.796814 259.616699,149.656067 262.857147,149.301895 
M307.050049,92.296280 
	C306.726379,92.118225 306.402710,91.940170 305.421387,91.232651 
	C293.595978,91.156036 281.770569,91.085449 269.945221,90.999100 
	C266.443573,90.973534 264.696655,92.617683 264.800110,96.180061 
	C264.882202,99.008575 264.861511,101.840401 264.975281,104.667175 
	C264.986877,104.955238 265.608917,105.218727 266.243744,105.733856 
	C266.682587,104.105659 267.041199,102.775169 267.378571,101.523575 
	C270.027374,101.523575 272.317078,101.523575 274.473755,101.523575 
	C274.942352,103.057419 275.334686,104.341530 276.132599,106.953133 
	C276.880981,104.240685 277.245148,102.920830 277.589020,101.674553 
	C281.628326,101.006096 285.529175,99.970558 286.428711,106.943420 
	C287.406677,104.235504 287.886414,102.907181 288.515076,101.166527 
	C294.192566,101.166527 299.953186,101.166527 306.007751,101.991188 
	C306.006470,104.327370 306.005219,106.663551 305.606506,109.147972 
	C305.351013,109.289787 305.157562,109.491226 304.189026,109.864182 
	C302.101746,109.958176 300.014435,110.052162 297.927155,110.146156 
	C297.943573,110.638680 297.960022,111.131203 297.976440,111.623734 
	C300.622498,111.879585 303.268585,112.135445 305.822693,112.382408 
	C305.822693,115.092346 305.822693,117.477951 305.822693,119.818733 
	C302.937561,120.113297 300.474762,120.364738 298.011993,120.616180 
	C298.018738,121.091415 298.025482,121.566643 298.032227,122.041878 
	C300.539978,122.276047 303.047699,122.510223 305.888947,122.775543 
	C305.888947,125.309280 305.888947,127.709244 305.888947,130.141586 
	C303.089691,130.509476 300.574036,130.840088 298.058380,131.170700 
	C298.115448,131.605759 298.172516,132.040802 298.229584,132.475861 
	C301.527679,132.475861 304.825775,132.475861 308.520294,132.475861 
	C308.520294,119.943497 308.545990,107.647850 308.464691,95.352913 
	C308.459076,94.498444 307.658630,93.649231 307.009979,92.891388 
	C307.009979,92.891388 307.239349,92.831276 307.050049,92.296280 
M219.797333,32.222908 
	C222.031357,32.222908 224.265381,32.222908 226.752213,32.222908 
	C226.752213,35.180367 226.752213,37.581425 226.265579,40.012787 
	C225.858749,40.245522 225.451920,40.478256 224.356995,40.839752 
	C223.894318,40.796703 223.431656,40.753654 222.784286,40.458031 
	C222.465576,40.290539 222.214462,40.374714 221.208496,40.855022 
	C220.471039,41.154137 219.733582,41.453251 218.996124,41.752365 
	C219.048813,42.027683 219.101501,42.303001 219.154190,42.578323 
	C221.664719,42.803703 224.175232,43.029083 226.607422,43.247433 
	C226.607422,46.035942 226.607422,48.438381 226.607422,50.806267 
	C223.852356,51.079025 221.450241,51.316845 219.048111,51.554661 
	C219.096756,51.958500 219.145401,52.362335 219.194046,52.766174 
	C222.356873,52.766174 225.519699,52.766174 228.997955,52.766174 
	C228.997955,40.454956 229.012726,28.489296 228.988373,16.523716 
	C228.981659,13.226909 227.187775,11.733492 223.949829,11.738994 
	C212.626541,11.758234 201.299637,11.611114 189.983902,11.904705 
	C188.363297,11.946753 185.704361,13.848545 185.422668,15.266454 
	C184.748535,18.659847 185.204910,22.277834 185.204910,25.805155 
	C185.568451,25.869238 185.931992,25.933323 186.295517,25.997406 
	C186.841217,24.666004 187.386902,23.334602 187.965073,21.923931 
	C191.360687,22.573555 195.817917,19.846609 196.386688,26.218811 
	C198.214920,22.453779 202.757034,20.765776 205.496140,22.371799 
	C205.931076,23.598959 206.356232,24.798483 207.239288,27.289955 
	C207.890457,24.629551 208.184708,23.427357 208.473068,22.249241 
	C211.163422,22.249241 213.601578,22.249241 216.057022,22.249241 
	C216.416946,24.601046 216.740982,26.718288 216.836761,29.473469 
	C216.718750,29.666031 216.600739,29.858593 215.763733,29.977806 
	C214.434845,29.376345 213.111969,28.268713 211.776138,28.252878 
	C200.286240,28.116680 188.790192,28.037319 177.306961,28.347540 
	C175.776596,28.388884 173.040649,30.670805 173.006821,31.970905 
	C172.679337,44.554459 172.810226,57.149940 172.810226,69.721931 
	C187.520386,69.721931 201.758026,69.721931 216.504532,69.721931 
	C216.504532,56.299034 216.504532,43.175232 217.074310,30.199045 
	C217.681534,30.876020 218.288773,31.552996 219.797333,32.222908 
M297.996979,30.000633 
	C297.996979,30.000633 297.962860,29.961676 298.094208,30.794363 
	C300.614624,31.510836 303.135040,32.227306 305.704285,32.957657 
	C305.704285,35.442997 305.704285,37.987194 305.704285,40.595341 
	C302.985687,40.845394 300.677673,41.057686 298.369659,41.269974 
	C298.375427,41.660393 298.381195,42.050812 298.386963,42.441231 
	C300.845184,42.769508 303.303375,43.097786 305.811218,43.432686 
	C305.811218,45.990780 305.811218,48.238899 305.811218,50.693783 
	C303.125244,50.992897 300.709229,51.261948 298.293213,51.530998 
	C298.354736,51.895096 298.416290,52.259197 298.477814,52.623299 
	C301.609070,52.623299 304.740356,52.623299 308.143494,52.623299 
	C308.143494,40.197933 308.126434,28.223682 308.156097,16.249546 
	C308.163086,13.425670 307.029938,11.849730 304.046448,11.853621 
	C292.395142,11.868812 280.742126,11.766219 269.094818,11.981659 
	C267.719727,12.007094 265.359528,13.582803 265.204742,14.685386 
	C264.703674,18.254480 265.017670,21.938005 265.017670,25.577448 
	C268.506470,20.540024 272.922974,20.562979 275.907135,24.987349 
	C277.244080,23.997845 278.644623,22.115280 279.920929,22.196032 
	C282.434784,22.355087 284.879730,23.603565 287.547028,24.463959 
	C288.370880,19.487764 292.492126,22.576887 294.895721,22.456219 
	C296.095215,25.352457 297.065063,27.694166 297.996979,30.000633 
M217.979294,109.256516 
	C218.026215,109.587814 218.073135,109.919113 218.353882,110.986160 
	C221.127136,111.543343 223.900375,112.100533 226.603149,112.643555 
	C226.603149,115.119675 226.603149,117.528091 226.603149,119.920410 
	C223.844147,120.191956 221.440979,120.428482 219.037827,120.665009 
	C219.075699,121.056877 219.113571,121.448738 219.151459,121.840607 
	C221.693497,122.078827 224.235550,122.317039 227.026978,122.578621 
	C226.895218,125.457199 227.613434,128.501358 226.423264,130.236496 
	C225.340729,131.814682 222.184433,131.970413 220.672653,132.498184 
	C222.829483,132.498184 225.747375,132.498184 228.999374,132.498184 
	C228.999374,120.031715 229.041702,107.905785 228.971085,95.780502 
	C228.952271,92.548759 227.021835,90.998985 223.835114,90.997597 
	C212.683853,90.992744 201.531097,90.907372 190.383041,91.096153 
	C188.822495,91.122581 186.124451,92.297112 185.941498,93.302185 
	C185.222916,97.249573 185.300034,101.341797 185.096329,105.109261 
	C187.374893,103.487724 188.874390,101.552666 190.228729,101.649414 
	C192.571350,101.816757 194.823959,103.244370 197.275299,104.206505 
	C197.740326,99.885071 201.752609,101.479240 205.378479,101.621750 
	C205.797501,102.956581 206.199265,104.236458 206.993057,106.765137 
	C207.837570,104.256050 208.269989,102.971291 208.673126,101.773552 
	C212.984772,101.115089 217.190048,100.216202 216.737213,106.774384 
	C216.693680,107.404762 217.592865,108.100235 217.979294,109.256516 
M136.884048,90.922272 
	C136.884048,94.511421 136.884048,98.100563 136.884048,102.069862 
	C131.416779,102.069862 126.623451,101.961960 121.843864,102.169815 
	C120.988289,102.207016 120.189484,103.549805 119.364471,104.289772 
	C120.124321,104.942230 120.870712,106.141640 121.646149,106.160721 
	C127.910912,106.314857 134.181122,106.247162 141.171310,106.247162 
	C140.923767,101.108994 140.697968,96.422165 140.630249,91.060081 
	C140.751190,70.091545 140.964813,49.122822 140.923019,28.154604 
	C140.913467,23.365683 137.022400,20.042849 131.933823,20.027996 
	C107.790695,19.957527 83.647163,19.960337 59.503990,20.022970 
	C53.893517,20.037523 50.387070,23.377716 50.199764,28.929293 
	C49.997749,34.916740 50.237072,40.917912 50.114906,46.909649 
	C50.040020,50.582508 51.822613,50.457073 54.386944,49.652214 
	C54.576542,46.909954 54.743023,44.502052 54.911709,42.062233 
	C60.815617,42.062233 66.213272,42.062233 71.619026,42.062233 
	C71.897133,44.770168 72.140732,47.142147 72.399925,49.665924 
	C75.197800,48.617455 75.197800,48.617455 76.784668,42.093414 
	C82.205765,42.093414 87.614288,42.093414 92.963509,42.093414 
	C93.971146,50.148582 93.971146,50.148582 97.738159,49.315220 
	C97.870613,46.921005 98.004601,44.499004 98.135719,42.128860 
	C103.980469,42.128860 109.353516,42.128860 113.533478,42.128860 
	C115.147659,47.904175 116.565758,52.977921 118.038757,58.660351 
	C118.391655,59.122082 118.744553,59.583813 119.115334,60.878433 
	C120.478737,61.607788 121.808472,62.878822 123.211777,62.966019 
	C127.610252,63.239319 132.036438,63.066498 136.598999,63.066498 
	C136.598999,69.172768 136.598999,74.572556 136.598999,80.691864 
	C131.927536,80.691864 127.501404,80.545326 123.096031,80.783249 
	C121.813271,80.852524 120.589798,82.019669 119.339149,82.683563 
	C120.664162,83.436607 121.953629,84.752686 123.320724,84.838966 
	C127.730034,85.117256 132.167923,84.942688 136.611664,84.942688 
	C136.785110,87.054329 136.906387,88.530785 136.884048,90.922272 
M114.529976,140.874191 
	C114.894554,140.693283 115.007187,140.411606 115.015244,139.098343 
	C115.022995,114.448952 115.046852,89.799545 115.028908,65.150177 
	C115.023361,57.522999 112.164482,54.734695 104.390289,54.727737 
	C81.405701,54.707172 58.421062,54.709023 35.436459,54.726269 
	C26.915741,54.732662 24.209249,57.502422 24.204239,66.194191 
	C24.190893,89.345352 24.195776,112.496521 24.209833,135.647690 
	C24.210817,137.270401 24.346197,138.893066 24.433674,140.840576 
	C54.508133,140.840576 84.270378,140.840576 114.529976,140.874191 
M212.413696,149.267044 
	C214.998749,149.578568 216.334610,148.915359 216.287094,145.828323 
	C216.118164,134.848404 216.196182,123.864258 216.233124,112.881882 
	C216.243942,109.664810 214.996338,107.863976 211.551498,107.875145 
	C200.236328,107.911858 188.920761,107.924179 177.605759,107.867355 
	C173.835419,107.848412 172.760971,109.895241 172.783829,113.260597 
	C172.847137,122.578651 172.804001,131.897415 172.803101,141.215912 
	C172.802841,143.804245 172.803070,146.392593 172.803070,149.267990 
	C186.173462,149.267990 198.801819,149.267990 212.413696,149.267044 
M252.274567,69.356415 
	C252.453201,69.425392 252.631851,69.494362 252.810501,69.563332 
	C252.758469,69.378983 252.706436,69.194641 252.274567,69.356415 
z"/>
<path fill="#627F8D" opacity="1.000000" stroke="none" 
	d="
M114.032623,140.840576 
	C84.270378,140.840576 54.508133,140.840576 24.433674,140.840576 
	C24.346197,138.893066 24.210817,137.270401 24.209833,135.647690 
	C24.195776,112.496521 24.190893,89.345352 24.204239,66.194191 
	C24.209249,57.502422 26.915741,54.732662 35.436459,54.726269 
	C58.421062,54.709023 81.405701,54.707172 104.390289,54.727737 
	C112.164482,54.734695 115.023361,57.522999 115.028908,65.150177 
	C115.046852,89.799545 115.022995,114.448952 114.759613,139.649811 
	C114.277191,140.362991 114.120071,140.576096 114.032623,140.840576 
M108.031738,137.879532 
	C108.993462,136.787354 110.713394,135.742722 110.785400,134.594727 
	C111.093895,129.676712 110.916908,124.728218 110.916908,119.209595 
	C107.623901,119.209595 104.848473,119.209602 102.073036,119.209602 
	C99.300362,119.209602 96.527687,119.209595 93.879524,119.209595 
	C90.974686,137.081573 91.581245,137.902634 108.031738,137.879532 
M63.250237,119.211075 
	C59.000717,119.211075 54.751198,119.211075 50.445107,119.211075 
	C50.445107,125.756386 50.445107,131.620605 50.445107,138.221008 
	C56.347923,137.713211 61.815014,137.242889 67.731918,136.733887 
	C67.731918,131.483795 67.930977,126.697899 67.570412,121.954536 
	C67.494820,120.960152 65.358757,120.122391 63.250237,119.211075 
M50.075287,78.782654 
	C50.075287,83.555313 50.075287,88.327980 50.075287,93.627472 
	C55.553429,93.627472 60.501957,93.717827 65.440292,93.534126 
	C66.218353,93.505188 67.576019,92.259392 67.603020,91.536537 
	C67.792656,86.460678 67.703545,81.374420 67.703545,76.039543 
	C62.300564,76.039543 57.651859,75.936661 53.014641,76.121651 
	C52.022739,76.161224 51.072491,77.244904 50.075287,78.782654 
M110.930687,89.262016 
	C110.930687,84.994690 110.930687,80.727364 110.930687,76.385262 
	C104.763199,76.385262 99.222260,76.385262 93.269432,76.385262 
	C93.269432,81.359482 93.059517,86.001389 93.422348,90.598076 
	C93.509148,91.697701 95.422752,93.392998 96.636276,93.524857 
	C100.251648,93.917702 103.941864,93.551270 107.592796,93.710915 
	C110.257126,93.827415 111.243042,92.714676 110.930687,89.262016 
M83.362900,119.230118 
	C79.640366,119.230118 75.917831,119.230118 72.357941,119.230118 
	C72.357941,125.916962 72.357941,131.775726 72.357941,137.868408 
	C77.071129,137.868408 81.377769,138.105209 85.627975,137.719742 
	C86.854851,137.608475 88.815605,135.775146 88.902618,134.615921 
	C89.270432,129.715408 89.058449,124.771370 89.058449,119.528915 
	C87.195457,119.411804 85.752983,119.321129 83.362900,119.230118 
M39.331867,137.879211 
	C41.753185,137.355652 45.619576,139.495255 45.887989,134.885208 
	C46.182343,129.829636 45.955017,124.743698 45.955017,119.571869 
	C39.956215,119.571869 34.578503,119.571869 29.137207,119.571869 
	C29.137207,125.750870 29.137207,131.602295 29.137207,137.879105 
	C32.501839,137.879105 35.446308,137.879105 39.331867,137.879211 
M110.885941,99.789322 
	C110.288795,99.167320 109.706596,98.023216 109.092148,98.005638 
	C104.011124,97.860191 98.924118,97.923332 93.560539,97.923332 
	C93.560539,103.767738 93.560539,109.130890 93.560539,114.748840 
	C99.340988,114.748840 104.866356,114.748840 110.906715,114.748840 
	C110.906715,109.913895 110.906715,105.325752 110.885941,99.789322 
M72.264030,92.945747 
	C77.764687,93.240234 83.265343,93.534714 88.782593,93.830086 
	C88.782593,87.372620 88.782593,81.947975 88.782593,76.365311 
	C83.105942,76.365311 77.718880,76.365311 71.984734,76.365311 
	C71.984734,81.810425 71.984734,86.940437 72.264030,92.945747 
M56.581566,115.012985 
	C60.177322,115.012985 63.773075,115.012985 67.300720,115.012985 
	C67.300720,108.911888 67.300720,103.537346 67.300720,98.161118 
	C61.439129,98.161118 56.006439,98.161118 50.406384,98.161118 
	C50.406384,103.829071 50.406384,109.219040 50.406384,115.012985 
	C52.354805,115.012985 53.989361,115.012985 56.581566,115.012985 
M41.202339,93.647118 
	C42.657379,93.535156 44.112419,93.423187 45.572105,93.310867 
	C45.572105,87.376648 45.572105,81.834709 45.572105,76.469406 
	C39.771740,76.469406 34.383152,76.469406 29.055210,76.469406 
	C29.055210,82.315933 29.055210,87.731194 29.055210,93.646942 
	C33.016655,93.646942 36.644554,93.646942 41.202339,93.647118 
M45.974590,109.390945 
	C45.974590,105.643295 45.974590,101.895645 45.974590,98.265442 
	C39.854797,98.265442 34.457584,98.265442 29.145617,98.265442 
	C29.145617,103.999168 29.145617,109.361481 29.145617,114.815849 
	C34.820164,114.815849 40.083385,114.815849 45.686314,114.815849 
	C45.789112,113.223465 45.881821,111.787415 45.974590,109.390945 
M72.789856,98.090385 
	C72.405441,103.557907 72.021019,109.025429 71.619705,114.733337 
	C77.849403,114.733337 83.214813,114.733337 88.773895,114.733337 
	C88.773895,109.105202 88.773895,103.742783 88.773895,97.936241 
	C83.584198,97.936241 78.660294,97.936241 72.789856,98.090385 
z"/>
<path fill="#627F8D" opacity="1.000000" stroke="none" 
	d="
M117.983856,58.051670 
	C116.565758,52.977921 115.147659,47.904175 113.533478,42.128860 
	C109.353516,42.128860 103.980469,42.128860 98.135719,42.128860 
	C98.004601,44.499004 97.870613,46.921005 97.738159,49.315220 
	C93.971146,50.148582 93.971146,50.148582 92.963509,42.093414 
	C87.614288,42.093414 82.205765,42.093414 76.784668,42.093414 
	C75.197800,48.617455 75.197800,48.617455 72.399925,49.665924 
	C72.140732,47.142147 71.897133,44.770168 71.619026,42.062233 
	C66.213272,42.062233 60.815617,42.062233 54.911709,42.062233 
	C54.743023,44.502052 54.576542,46.909954 54.386944,49.652214 
	C51.822613,50.457073 50.040020,50.582508 50.114906,46.909649 
	C50.237072,40.917912 49.997749,34.916740 50.199764,28.929293 
	C50.387070,23.377716 53.893517,20.037523 59.503990,20.022970 
	C83.647163,19.960337 107.790695,19.957527 131.933823,20.027996 
	C137.022400,20.042849 140.913467,23.365683 140.923019,28.154604 
	C140.964813,49.122822 140.751190,70.091545 140.112152,91.380234 
	C138.738602,91.136009 137.883133,90.571625 137.027649,90.007240 
	C136.906387,88.530785 136.785110,87.054329 136.611664,84.942688 
	C132.167923,84.942688 127.730034,85.117256 123.320724,84.838966 
	C121.953629,84.752686 120.664162,83.436607 119.339149,82.683563 
	C120.589798,82.019669 121.813271,80.852524 123.096031,80.783249 
	C127.501404,80.545326 131.927536,80.691864 136.598999,80.691864 
	C136.598999,74.572556 136.598999,69.172768 136.598999,63.066498 
	C132.036438,63.066498 127.610252,63.239319 123.211777,62.966019 
	C121.808472,62.878822 120.478737,61.607788 119.566360,60.441910 
	C124.161880,59.999802 128.342209,60.304592 132.432770,59.832130 
	C134.015198,59.649361 136.523987,57.828064 136.663620,56.541862 
	C137.174606,51.834740 136.865906,47.038635 136.865906,42.054062 
	C130.786026,42.054062 125.269981,42.054062 119.257660,42.054062 
	C119.257660,44.841171 119.422058,47.309132 119.214310,49.745361 
	C118.976944,52.528866 118.408455,55.284130 117.983856,58.051670 
z"/>
<path fill="#0EB2F0" opacity="1.000000" stroke="none" 
	d="
M216.504532,30.051428 
	C216.504532,43.175232 216.504532,56.299034 216.504532,69.721931 
	C201.758026,69.721931 187.520386,69.721931 172.810226,69.721931 
	C172.810226,57.149940 172.679337,44.554459 173.006821,31.970905 
	C173.040649,30.670805 175.776596,28.388884 177.306961,28.347540 
	C188.790192,28.037319 200.286240,28.116680 211.776138,28.252878 
	C213.111969,28.268713 214.434845,29.376345 216.145905,29.985861 
	C216.528076,29.993916 216.504532,30.051428 216.504532,30.051428 
M191.960083,57.657097 
	C192.735138,54.978668 193.510193,52.300240 194.362259,49.355625 
	C190.445251,49.355625 187.878021,49.355625 185.358246,49.355625 
	C185.358246,52.264805 185.358246,54.823929 185.358246,57.716515 
	C187.498795,57.716515 189.297302,57.716515 191.960083,57.657097 
M198.767197,57.718689 
	C200.377274,57.646255 201.987366,57.573818 203.748718,57.494579 
	C203.748718,54.568886 203.748718,52.007111 203.748718,49.307438 
	C200.924606,49.307438 198.370895,49.307438 195.300369,49.307438 
	C196.347534,52.343960 192.790680,56.142540 198.767197,57.718689 
M185.017410,65.366020 
	C186.627258,70.914459 190.543549,66.744331 193.268707,67.830605 
	C194.388657,58.713005 193.503723,57.909275 185.013702,60.082043 
	C185.013702,61.498390 185.013702,62.980103 185.017410,65.366020 
M202.279648,67.952187 
	C203.054474,65.312759 203.829300,62.673325 204.636673,59.923042 
	C194.816940,58.503727 193.997910,59.368378 196.081573,67.977058 
	C197.785370,67.977058 199.579407,67.977058 202.279648,67.952187 
M189.422058,38.629105 
	C188.032425,38.755714 186.642807,38.882320 185.333008,39.001656 
	C185.333008,41.878162 185.333008,44.265648 185.333008,46.701595 
	C188.176224,46.701595 190.716171,46.701595 193.878189,46.701595 
	C192.342346,43.791595 196.781296,39.187916 189.422058,38.629105 
M209.598633,67.964470 
	C211.038422,67.884308 212.478195,67.804146 214.047577,67.716766 
	C214.047577,64.884384 214.047577,62.356293 214.047577,59.716930 
	C211.216080,59.716930 208.723999,59.716930 205.589615,59.716930 
	C207.446564,62.615620 203.159760,66.808685 209.598633,67.964470 
M207.749771,49.056740 
	C206.964157,51.670296 206.178543,54.283848 205.279694,57.274097 
	C209.018951,57.274097 211.512512,57.274097 213.959015,57.274097 
	C213.959015,54.332970 213.959015,51.820091 213.959015,49.038216 
	C211.923172,49.038216 210.297211,49.038216 207.749771,49.056740 
M177.649628,57.688908 
	C179.268112,57.688908 180.886597,57.688908 182.749023,57.688908 
	C182.749023,54.608208 182.749023,52.043678 182.749023,49.279060 
	C180.129776,49.279060 177.726181,49.279060 173.942642,49.279060 
	C175.014374,52.462944 175.889648,55.063198 177.649628,57.688908 
M182.973358,66.286369 
	C182.973358,64.052094 182.973358,61.817822 182.973358,59.731857 
	C179.830719,59.731857 177.459778,59.731857 175.046539,59.731857 
	C175.046539,62.588478 175.046539,65.018112 175.046539,68.211021 
	C177.844986,67.842583 180.339127,67.514206 182.973358,66.286369 
M195.320938,41.568203 
	C195.418243,43.296806 195.515533,45.025406 195.604675,46.609100 
	C198.735306,46.609100 201.262283,46.609100 203.703735,46.609100 
	C203.703735,43.823467 203.703735,41.424122 203.703735,37.684105 
	C200.519974,38.824730 197.934601,39.750973 195.320938,41.568203 
M209.611237,46.973858 
	C211.057861,46.889614 212.504486,46.805370 214.033218,46.716347 
	C214.033218,44.000477 214.033218,41.603806 214.033218,38.937466 
	C211.337906,38.937466 208.944275,38.937466 205.458267,38.937466 
	C207.584747,41.660046 203.215652,45.651096 209.611237,46.973858 
M177.575455,46.970039 
	C179.310806,46.970039 181.046158,46.970039 182.673065,46.970039 
	C182.673065,43.834900 182.673065,41.426922 182.673065,38.984890 
	C179.981018,38.984890 177.593658,38.984890 173.924484,38.984890 
	C174.965591,42.027061 175.808640,44.490459 177.575455,46.970039 
z"/>
<path fill="#FA9705" opacity="1.000000" stroke="none" 
	d="
M211.921936,149.267517 
	C198.801819,149.267990 186.173462,149.267990 172.803070,149.267990 
	C172.803070,146.392593 172.802841,143.804245 172.803101,141.215912 
	C172.804001,131.897415 172.847137,122.578651 172.783829,113.260597 
	C172.760971,109.895241 173.835419,107.848412 177.605759,107.867355 
	C188.920761,107.924179 200.236328,107.911858 211.551498,107.875145 
	C214.996338,107.863976 216.243942,109.664810 216.233124,112.881882 
	C216.196182,123.864258 216.118164,134.848404 216.287094,145.828323 
	C216.334610,148.915359 214.998749,149.578568 211.921936,149.267517 
M204.033478,124.244400 
	C204.033478,122.318436 204.033478,120.392471 204.033478,118.241714 
	C200.998001,118.241714 198.451797,118.241714 195.691971,118.241714 
	C195.691971,121.122314 195.691971,123.793015 195.691971,127.555748 
	C198.836502,126.643250 201.418793,125.893913 204.033478,124.244400 
M185.184525,118.820793 
	C185.184525,121.365623 185.184525,123.910446 185.184525,126.421249 
	C188.290283,126.421249 190.822296,126.421249 193.522644,126.421249 
	C193.610138,124.771957 193.747894,123.481674 193.727280,122.193916 
	C193.707001,120.925941 193.526199,119.660538 193.397308,118.181419 
	C190.695374,118.181419 188.265823,118.181419 185.184525,118.820793 
M202.224228,128.391708 
	C194.502106,128.318588 194.304733,128.577469 195.958511,136.772736 
	C198.504913,136.772736 201.074570,136.772736 204.394028,136.772736 
	C203.920410,133.795105 203.501862,131.163635 202.224228,128.391708 
M212.921677,128.426376 
	C210.680481,128.426376 208.439285,128.426376 206.313934,128.426376 
	C206.313934,131.705276 206.313934,134.269821 206.313934,136.659866 
	C209.230911,136.659866 211.784760,136.659866 215.011688,136.659866 
	C214.532532,133.691986 214.127640,131.184158 212.921677,128.426376 
M185.000458,132.606964 
	C185.095978,134.023849 185.191498,135.440750 185.274246,136.668167 
	C188.311676,136.668167 190.873672,136.668167 193.742828,136.668167 
	C193.742828,134.835739 193.649490,133.360260 193.763596,131.900986 
	C193.959518,129.395676 193.013504,128.056320 190.386154,128.379486 
	C188.106659,128.659882 184.543762,126.973709 185.000458,132.606964 
M205.972488,123.338959 
	C206.673370,130.050522 211.269165,125.422272 214.338867,126.810371 
	C214.338867,123.555519 214.338867,121.001465 214.338867,118.288361 
	C211.476334,118.288361 208.922867,118.288361 205.972305,118.288361 
	C205.972305,119.845840 205.972305,121.140778 205.972488,123.338959 
M174.719299,135.993011 
	C177.309540,136.435715 179.899765,136.878403 182.753052,137.366058 
	C182.753052,133.976074 182.753052,131.416138 182.753052,128.810928 
	C179.949875,128.810928 177.425781,128.810928 174.618286,128.810928 
	C174.618286,131.197205 174.618286,133.173859 174.719299,135.993011 
M196.909576,139.001434 
	C196.469360,141.512024 196.029129,144.022614 195.588913,146.533203 
	C198.279160,146.972397 200.969421,147.411591 204.035431,147.912140 
	C204.035431,145.432617 204.083466,144.115997 204.021591,142.804550 
	C203.962646,141.554977 203.789078,140.310822 203.656662,138.970978 
	C201.434631,138.970978 199.616760,138.970978 196.909576,139.001434 
M205.980972,140.661499 
	C205.980972,142.888855 205.980972,145.116211 205.980972,147.254211 
	C215.295029,148.167999 215.541016,147.905518 213.993362,138.749725 
	C211.396820,139.079819 208.746826,139.416702 205.980972,140.661499 
M185.000809,142.499084 
	C185.089081,144.084747 185.177338,145.670425 185.260727,147.168259 
	C194.311478,148.340103 195.209991,147.346191 192.856827,138.881836 
	C190.422043,140.410431 186.250763,136.140045 185.000809,142.499084 
M178.626556,138.984665 
	C177.377075,139.083511 176.127609,139.182358 175.002441,139.271378 
	C175.002441,142.223877 175.002441,144.770874 175.002441,147.291565 
	C177.841354,147.291565 180.258728,147.291565 183.405457,147.291565 
	C181.357849,144.421448 186.620361,139.278137 178.626556,138.984665 
M174.776169,125.195396 
	C177.337479,125.865517 179.898804,126.535629 182.729828,127.276306 
	C182.729828,123.515854 182.729828,120.953911 182.729828,118.267136 
	C180.039352,118.267136 177.639221,118.267136 174.720306,118.267136 
	C174.720306,120.420914 174.720306,122.350395 174.776169,125.195396 
z"/>
<path fill="#409244" opacity="1.000000" stroke="none" 
	d="
M292.942688,108.165161 
	C293.965607,109.639153 295.843964,111.095055 295.875580,112.590004 
	C296.120239,124.162132 296.025360,135.741882 295.959473,147.318863 
	C295.955841,147.955551 295.274170,148.588379 294.467590,148.775116 
	C293.999786,147.825317 293.972504,147.323410 293.947571,146.395828 
	C293.364624,143.385025 295.770050,139.804398 291.450897,138.462051 
	C291.973480,137.910828 292.496063,137.359604 293.263062,136.829178 
	C293.882294,136.671982 293.978821,136.396454 293.866699,135.595428 
	C293.886902,133.436752 293.837463,131.706085 293.813110,129.695221 
	C293.554932,129.247574 293.271698,129.080093 292.556946,128.805420 
	C290.082825,128.849365 288.040161,129.000504 285.718506,129.182831 
	C285.158508,129.329941 284.877472,129.445862 284.596436,129.561783 
	C284.987305,129.930664 285.378143,130.299561 285.607727,131.030396 
	C285.570801,133.270126 285.747314,135.146698 285.792297,137.026413 
	C285.808929,137.722641 285.516815,138.426270 285.064941,139.174133 
	C284.218506,139.486725 283.672638,139.751709 282.933533,139.676453 
	C282.243011,138.698425 281.209869,137.915527 281.336792,137.446732 
	C282.075043,134.720551 283.085876,132.068161 284.152618,128.959351 
	C280.217377,128.959351 277.814667,128.959351 275.211700,128.959351 
	C275.155945,135.429321 275.102478,141.633606 275.025116,148.148361 
	C274.995087,148.666351 274.988983,148.873871 274.982849,149.081375 
	C274.541840,149.153671 274.100830,149.225952 273.342102,148.817368 
	C273.000946,147.840485 272.977570,147.344467 272.954651,146.415283 
	C272.955139,140.352982 272.955139,134.723846 272.955139,128.930206 
	C270.038055,128.930206 267.629852,128.930206 264.493256,128.930206 
	C264.817566,132.091263 265.162018,134.964615 265.347260,137.848175 
	C265.371155,138.220062 264.570648,138.644913 263.775391,139.049988 
	C263.147888,139.067932 262.897095,139.081116 262.284302,139.092163 
	C261.304596,138.787567 260.686890,138.485107 260.069153,138.182648 
	C260.707825,137.695328 261.346466,137.208008 262.379944,136.718170 
	C265.220917,133.897461 264.939636,131.358032 261.891418,128.952606 
	C261.787445,128.814377 261.441620,128.822174 261.192719,128.498032 
	C261.715210,124.959038 262.486572,121.744179 263.300751,118.350845 
	C259.456085,118.350845 256.905182,118.350845 254.447540,118.350845 
	C254.447540,122.145126 254.447540,125.583374 254.274780,129.232971 
	C254.135345,129.623260 254.168671,129.802170 254.145126,130.419159 
	C254.157089,132.912781 254.225906,134.968307 254.249847,137.247711 
	C254.204971,137.471573 254.527390,137.794968 254.527390,137.794968 
	C254.527390,137.794968 254.983673,137.775726 255.286911,137.983353 
	C255.169281,142.007294 254.748413,145.823593 254.327515,149.639908 
	C253.564255,148.464020 252.156799,147.298233 252.138214,146.110687 
	C251.967529,135.207306 251.938797,124.298347 252.139252,113.395988 
	C252.171036,111.668617 253.552368,109.966064 254.994232,108.480698 
	C266.370514,108.811203 277.062225,108.952904 287.754242,108.974632 
	C289.483185,108.978149 291.213165,108.448410 292.942688,108.165161 
M286.587158,126.587318 
	C288.969666,126.587318 291.352203,126.587318 293.637024,126.587318 
	C293.637024,123.363121 293.637024,120.818626 293.637024,117.919891 
	C290.854065,118.078468 288.430176,118.216576 285.075897,118.383888 
	C281.835297,118.383888 278.594727,118.383888 275.395691,118.383888 
	C275.395691,121.217133 275.395691,123.886185 275.395691,126.899239 
	C279.235443,126.603111 282.606415,126.343132 286.587158,126.587318 
M265.690460,118.145996 
	C265.275116,120.838249 264.859741,123.530495 264.422913,126.361984 
	C267.905090,126.361984 270.295776,126.361984 272.728516,126.361984 
	C272.728516,123.500359 272.728516,120.944786 272.728516,118.050461 
	C270.510010,118.050461 268.566406,118.050461 265.690460,118.145996 
z"/>
<path fill="#688491" opacity="1.000000" stroke="none" 
	d="
M289.538483,69.534775 
	C279.956238,69.413803 270.373993,69.292824 261.164124,68.576431 
	C261.951050,67.939651 262.365540,67.898277 263.153625,67.902496 
	C264.025452,67.963379 264.523712,67.978668 265.468811,67.969345 
	C268.166595,67.944725 270.417542,67.944725 272.892090,67.944725 
	C272.892090,64.697525 272.892090,62.080585 272.906738,58.980133 
	C272.911133,58.174873 272.900879,57.853134 272.919281,57.105980 
	C272.947906,54.253448 272.947906,51.826336 272.947906,49.008350 
	C269.947632,49.008350 267.488922,49.008350 264.627075,49.008789 
	C263.684540,48.974854 263.145142,48.940472 262.055328,48.831837 
	C261.244537,48.494308 260.984192,48.231037 261.127502,47.633018 
	C265.467010,46.200203 264.780609,42.022457 263.516937,41.038040 
	C261.214752,39.244663 257.671936,39.043934 254.261276,38.068474 
	C254.059875,41.732918 253.941986,43.877827 253.618134,46.127468 
	C253.025330,46.483204 252.638489,46.734215 252.251663,46.985222 
	C252.180649,42.525562 252.144775,38.064983 252.027832,33.606529 
	C251.928482,29.819672 253.958771,28.125820 257.491943,28.108461 
	C268.572052,28.054026 279.652679,28.064754 290.732910,28.101498 
	C294.071838,28.112570 296.027100,29.697922 295.549805,33.712688 
	C294.744202,35.793697 294.367981,37.406662 293.545288,38.931030 
	C290.701691,38.842438 288.304565,38.842438 284.672241,38.842438 
	C285.632172,42.703007 286.422699,45.882320 286.758850,49.078739 
	C286.001892,49.114784 285.699341,49.133720 285.001373,49.112915 
	C284.076691,49.047104 283.547394,49.021038 282.568298,49.015114 
	C279.866028,49.035252 277.613586,49.035252 275.178192,49.035252 
	C275.178192,52.307350 275.178192,54.927219 275.158936,58.022682 
	C275.152344,58.815350 275.164948,59.132420 275.134125,59.870049 
	C275.090729,62.721355 275.090729,65.152100 275.090729,68.006668 
	C278.100769,68.006668 280.562378,68.006668 283.423889,67.987228 
	C284.356720,67.938255 284.889587,67.908730 286.151794,68.011841 
	C287.766907,68.607910 288.652710,69.071342 289.538483,69.534775 
M272.989014,42.506016 
	C272.786163,35.348804 267.934052,40.128536 265.117737,38.865253 
	C265.117737,41.861851 265.117737,44.244705 265.117737,48.119686 
	C267.770996,45.066051 273.038147,50.499722 272.989014,42.506016 
M280.476410,38.810112 
	C278.746429,38.810112 277.016449,38.810112 275.449158,38.810112 
	C275.449158,42.023598 275.449158,44.416656 275.449158,46.575111 
	C278.233704,46.575111 280.630280,46.575111 284.252289,46.575111 
	C283.130798,43.504974 282.275085,41.162357 280.476410,38.810112 
z"/>
<path fill="#FFD119" opacity="1.000000" stroke="none" 
	d="
M218.054413,108.765488 
	C217.592865,108.100235 216.693680,107.404762 216.737213,106.774384 
	C217.190048,100.216202 212.984772,101.115089 208.673126,101.773552 
	C208.269989,102.971291 207.837570,104.256050 206.993057,106.765137 
	C206.199265,104.236458 205.797501,102.956581 205.378479,101.621750 
	C201.752609,101.479240 197.740326,99.885071 197.275299,104.206505 
	C194.823959,103.244370 192.571350,101.816757 190.228729,101.649414 
	C188.874390,101.552666 187.374893,103.487724 185.096329,105.109261 
	C185.300034,101.341797 185.222916,97.249573 185.941498,93.302185 
	C186.124451,92.297112 188.822495,91.122581 190.383041,91.096153 
	C201.531097,90.907372 212.683853,90.992744 223.835114,90.997597 
	C227.021835,90.998985 228.952271,92.548759 228.971085,95.780502 
	C229.041702,107.905785 228.999374,120.031715 228.999374,132.498184 
	C225.747375,132.498184 222.829483,132.498184 220.672653,132.498184 
	C222.184433,131.970413 225.340729,131.814682 226.423264,130.236496 
	C227.613434,128.501358 226.895218,125.457199 227.026978,122.578621 
	C224.235550,122.317039 221.693497,122.078827 219.151459,121.840607 
	C219.113571,121.448738 219.075699,121.056877 219.037827,120.665009 
	C221.440979,120.428482 223.844147,120.191956 226.603149,119.920410 
	C226.603149,117.528091 226.603149,115.119675 226.603149,112.643555 
	C223.900375,112.100533 221.127136,111.543343 218.670380,110.506363 
	C221.552124,109.914459 224.117355,109.802353 226.663391,109.691078 
	C226.663391,106.684616 226.663391,104.145927 226.663391,101.667427 
	C218.542725,100.530853 218.543808,100.530907 218.183411,107.787895 
	C218.167160,108.115082 218.098602,108.439690 218.054413,108.765488 
z"/>
<path fill="#A4B3BB" opacity="1.000000" stroke="none" 
	d="
M298.034912,30.035877 
	C297.065063,27.694166 296.095215,25.352457 294.895721,22.456219 
	C292.492126,22.576887 288.370880,19.487764 287.547028,24.463959 
	C284.879730,23.603565 282.434784,22.355087 279.920929,22.196032 
	C278.644623,22.115280 277.244080,23.997845 275.907135,24.987349 
	C272.922974,20.562979 268.506470,20.540024 265.017670,25.577448 
	C265.017670,21.938005 264.703674,18.254480 265.204742,14.685386 
	C265.359528,13.582803 267.719727,12.007094 269.094818,11.981659 
	C280.742126,11.766219 292.395142,11.868812 304.046448,11.853621 
	C307.029938,11.849730 308.163086,13.425670 308.156097,16.249546 
	C308.126434,28.223682 308.143494,40.197933 308.143494,52.623299 
	C304.740356,52.623299 301.609070,52.623299 298.477814,52.623299 
	C298.416290,52.259197 298.354736,51.895096 298.293213,51.530998 
	C300.709229,51.261948 303.125244,50.992897 305.811218,50.693783 
	C305.811218,48.238899 305.811218,45.990780 305.811218,43.432686 
	C303.303375,43.097786 300.845184,42.769508 298.386963,42.441231 
	C298.381195,42.050812 298.375427,41.660393 298.369659,41.269974 
	C300.677673,41.057686 302.985687,40.845394 305.704285,40.595341 
	C305.704285,37.987194 305.704285,35.442997 305.704285,32.957657 
	C303.135040,32.227306 300.614624,31.510836 298.481812,30.430424 
	C301.127136,30.066483 303.384888,30.066483 305.666809,30.066483 
	C305.666809,27.000174 305.666809,24.644958 305.666809,22.338699 
	C302.957489,22.338699 300.706909,22.338699 298.034912,22.338699 
	C298.034912,25.121107 298.034912,27.578493 298.034912,30.035877 
z"/>
<path fill="#C0DE18" opacity="1.000000" stroke="none" 
	d="
M226.752213,39.982483 
	C226.752213,37.581425 226.752213,35.180367 226.752213,32.222908 
	C224.265381,32.222908 222.031357,32.222908 219.412415,31.767937 
	C221.546555,30.860971 224.065613,30.408979 226.656494,29.944099 
	C226.656494,27.374971 226.656494,24.839849 226.656494,22.299366 
	C223.774643,22.299366 221.228317,22.299366 219.048279,22.299366 
	C218.309067,24.735527 217.687042,26.785530 217.065002,28.835533 
	C216.740982,26.718288 216.416946,24.601046 216.057022,22.249241 
	C213.601578,22.249241 211.163422,22.249241 208.473068,22.249241 
	C208.184708,23.427357 207.890457,24.629551 207.239288,27.289955 
	C206.356232,24.798483 205.931076,23.598959 205.496140,22.371799 
	C202.757034,20.765776 198.214920,22.453779 196.386688,26.218811 
	C195.817917,19.846609 191.360687,22.573555 187.965073,21.923931 
	C187.386902,23.334602 186.841217,24.666004 186.295517,25.997406 
	C185.931992,25.933323 185.568451,25.869238 185.204910,25.805155 
	C185.204910,22.277834 184.748535,18.659847 185.422668,15.266454 
	C185.704361,13.848545 188.363297,11.946753 189.983902,11.904705 
	C201.299637,11.611114 212.626541,11.758234 223.949829,11.738994 
	C227.187775,11.733492 228.981659,13.226909 228.988373,16.523716 
	C229.012726,28.489296 228.997955,40.454956 228.997955,52.766174 
	C225.519699,52.766174 222.356873,52.766174 219.194046,52.766174 
	C219.145401,52.362335 219.096756,51.958500 219.048111,51.554661 
	C221.450241,51.316845 223.852356,51.079025 226.607422,50.806267 
	C226.607422,48.438381 226.607422,46.035942 226.607422,43.247433 
	C224.175232,43.029083 221.664719,42.803703 219.154190,42.578323 
	C219.101501,42.303001 219.048813,42.027683 218.996124,41.752365 
	C219.733582,41.453251 220.471039,41.154137 221.854202,40.848724 
	C222.499908,40.842430 222.968979,40.710606 222.968979,40.710606 
	C223.431656,40.753654 223.894318,40.796703 224.979767,40.854225 
	C225.985779,40.573292 226.368988,40.277889 226.752213,39.982483 
z"/>
<path fill="#8CC44C" opacity="1.000000" stroke="none" 
	d="
M305.713806,101.166527 
	C299.953186,101.166527 294.192566,101.166527 288.515076,101.166527 
	C287.886414,102.907181 287.406677,104.235504 286.428711,106.943420 
	C285.529175,99.970558 281.628326,101.006096 277.589020,101.674553 
	C277.245148,102.920830 276.880981,104.240685 276.132599,106.953133 
	C275.334686,104.341530 274.942352,103.057419 274.473755,101.523575 
	C272.317078,101.523575 270.027374,101.523575 267.378571,101.523575 
	C267.041199,102.775169 266.682587,104.105659 266.243744,105.733856 
	C265.608917,105.218727 264.986877,104.955238 264.975281,104.667175 
	C264.861511,101.840401 264.882202,99.008575 264.800110,96.180061 
	C264.696655,92.617683 266.443573,90.973534 269.945221,90.999100 
	C281.770569,91.085449 293.595978,91.156036 305.843811,91.767609 
	C306.590607,92.478806 306.914978,92.655037 307.239349,92.831268 
	C307.239349,92.831276 307.009979,92.891388 307.047607,93.297462 
	C306.628082,96.191200 306.170929,98.678864 305.713806,101.166527 
z"/>
<path fill="#F9FAFA" opacity="1.000000" stroke="none" 
	d="
M118.011307,58.356010 
	C118.408455,55.284130 118.976944,52.528866 119.214310,49.745361 
	C119.422058,47.309132 119.257660,44.841171 119.257660,42.054062 
	C125.269981,42.054062 130.786026,42.054062 136.865906,42.054062 
	C136.865906,47.038635 137.174606,51.834740 136.663620,56.541862 
	C136.523987,57.828064 134.015198,59.649361 132.432770,59.832130 
	C128.342209,60.304592 124.161880,59.999802 119.557419,60.025467 
	C118.744553,59.583813 118.391655,59.122082 118.011307,58.356010 
z"/>
<path fill="#92C753" opacity="1.000000" stroke="none" 
	d="
M305.860779,101.578857 
	C306.170929,98.678864 306.628082,96.191200 307.156494,93.250549 
	C307.658630,93.649231 308.459076,94.498444 308.464691,95.352913 
	C308.545990,107.647850 308.520294,119.943497 308.520294,132.475861 
	C304.825775,132.475861 301.527679,132.475861 298.229584,132.475861 
	C298.172516,132.040802 298.115448,131.605759 298.058380,131.170700 
	C300.574036,130.840088 303.089691,130.509476 305.888947,130.141586 
	C305.888947,127.709244 305.888947,125.309280 305.888947,122.775543 
	C303.047699,122.510223 300.539978,122.276047 298.032227,122.041878 
	C298.025482,121.566643 298.018738,121.091415 298.011993,120.616180 
	C300.474762,120.364738 302.937561,120.113297 305.822693,119.818733 
	C305.822693,117.477951 305.822693,115.092346 305.822693,112.382408 
	C303.268585,112.135445 300.622498,111.879585 297.976440,111.623734 
	C297.960022,111.131203 297.943573,110.638680 297.927155,110.146156 
	C300.014435,110.052162 302.101746,109.958176 304.859924,109.826309 
	C305.688568,109.525536 305.846252,109.262634 306.003967,108.999733 
	C306.005219,106.663551 306.006470,104.327370 305.860779,101.578857 
z"/>
<path fill="#F5F8F5" opacity="1.000000" stroke="none" 
	d="
M261.441620,128.822174 
	C261.441620,128.822174 261.787445,128.814377 261.886536,129.377396 
	C261.985504,132.200500 261.985321,134.460587 261.985138,136.720673 
	C261.346466,137.208008 260.707825,137.695328 260.069153,138.182648 
	C260.686890,138.485107 261.304596,138.787567 262.343567,139.525955 
	C262.495544,143.146362 262.226257,146.330841 261.957001,149.515335 
	C259.616699,149.656067 257.276398,149.796814 254.631821,149.788727 
	C254.748413,145.823593 255.169281,142.007294 255.210556,137.825806 
	C254.697479,137.259460 254.518723,137.113861 254.294708,137.023849 
	C254.225906,134.968307 254.157089,132.912781 254.311447,130.326996 
	C254.735931,129.636276 254.890350,129.439087 255.450378,129.161743 
	C257.749115,129.019562 259.595367,128.920868 261.441620,128.822174 
z"/>
<path fill="#5E7C8A" opacity="1.000000" stroke="none" 
	d="
M136.955856,90.464752 
	C137.883133,90.571625 138.738602,91.136009 140.033112,91.717865 
	C140.697968,96.422165 140.923767,101.108994 141.171310,106.247162 
	C134.181122,106.247162 127.910912,106.314857 121.646149,106.160721 
	C120.870712,106.141640 120.124321,104.942230 119.364471,104.289772 
	C120.189484,103.549805 120.988289,102.207016 121.843864,102.169815 
	C126.623451,101.961960 131.416779,102.069862 136.884048,102.069862 
	C136.884048,98.100563 136.884048,94.511421 136.955856,90.464752 
z"/>
<path fill="#597887" opacity="1.000000" stroke="none" 
	d="
M283.018127,48.994972 
	C283.547394,49.021038 284.076691,49.047104 284.958038,49.547386 
	C285.310120,52.417751 285.310120,54.813908 285.310120,57.431217 
	C288.433929,57.431217 290.957977,57.431217 294.899567,57.431217 
	C292.006714,54.663906 297.237518,50.351547 291.089813,48.651344 
	C295.374268,46.298409 293.650085,42.311047 293.991760,39.019630 
	C294.367981,37.406662 294.744202,35.793697 295.477264,34.100693 
	C295.884674,44.934223 296.002197,55.848537 295.881775,66.760223 
	C295.869751,67.847580 294.408997,68.918945 292.918762,69.639511 
	C292.995453,66.167824 293.774078,63.054356 294.629669,59.633057 
	C290.797943,59.633057 288.241882,59.633057 285.422485,59.633057 
	C285.422485,62.618858 285.422485,65.249031 285.422485,67.879204 
	C284.889587,67.908730 284.356720,67.938255 283.553650,67.615311 
	C283.283478,64.705322 283.283478,62.147800 283.283478,59.449493 
	C280.134583,59.449493 277.656036,59.449493 275.177521,59.449493 
	C275.164948,59.132420 275.152344,58.815350 275.577301,58.075390 
	C278.409912,57.652504 280.804932,57.652504 283.684875,57.652504 
	C283.419189,54.202759 283.218658,51.598862 283.018127,48.994972 
z"/>
<path fill="#EFF2F3" opacity="1.000000" stroke="none" 
	d="
M260.723816,47.967766 
	C260.984192,48.231037 261.244537,48.494308 262.134674,49.286266 
	C262.787170,51.628819 262.578033,53.489479 262.930634,55.236771 
	C263.106445,56.107834 264.310516,56.771385 265.018616,57.522186 
	C264.987762,57.515568 264.985748,57.452534 264.686646,57.975945 
	C264.586578,58.848511 264.785614,59.197662 264.987427,59.519638 
	C264.990204,59.492462 265.044769,59.495384 264.782135,59.168877 
	C263.834564,58.890633 263.149658,58.938900 262.483704,58.998764 
	C262.502686,59.010361 262.545105,59.023701 262.390991,58.571396 
	C259.476471,57.904339 256.716064,57.689583 253.955643,57.474831 
	C253.955643,57.474831 254.020340,57.482967 254.027527,57.017292 
	C254.034698,54.169952 254.034698,51.788284 254.034698,49.665573 
	C256.549500,49.007572 258.515778,48.493095 260.493225,47.977802 
	C260.504395,47.976986 260.723816,47.967770 260.723816,47.967766 
z"/>
<path fill="#EDF0F1" opacity="1.000000" stroke="none" 
	d="
M286.151794,68.011841 
	C285.422485,65.249031 285.422485,62.618858 285.422485,59.633057 
	C288.241882,59.633057 290.797943,59.633057 294.629669,59.633057 
	C293.774078,63.054356 292.995453,66.167824 292.472229,69.694710 
	C291.684052,69.923584 290.640472,69.739044 289.567688,69.544632 
	C288.652710,69.071342 287.766907,68.607910 286.151794,68.011841 
z"/>
<path fill="#FBFDF1" opacity="1.000000" stroke="none" 
	d="
M216.950897,29.154503 
	C217.687042,26.785530 218.309067,24.735527 219.048279,22.299366 
	C221.228317,22.299366 223.774643,22.299366 226.656494,22.299366 
	C226.656494,24.839849 226.656494,27.374971 226.656494,29.944099 
	C224.065613,30.408979 221.546555,30.860971 218.961746,31.771469 
	C218.288773,31.552996 217.681534,30.876020 216.789429,30.125237 
	C216.504532,30.051428 216.528076,29.993916 216.505402,30.022535 
	C216.600739,29.858593 216.718750,29.666031 216.950897,29.154503 
z"/>
<path fill="#EEF1F2" opacity="1.000000" stroke="none" 
	d="
M262.545105,59.023705 
	C262.545105,59.023701 262.502686,59.010361 262.553589,59.441154 
	C262.663055,62.533596 262.721558,65.195251 262.780060,67.856903 
	C262.365540,67.898277 261.951050,67.939651 260.876129,68.072891 
	C258.361206,68.085793 256.506683,68.006828 254.340500,67.230835 
	C254.025467,64.172981 254.022110,61.812160 254.018753,59.451336 
	C254.018753,59.451336 254.019608,59.516785 254.454559,59.455357 
	C257.441376,59.270519 259.993256,59.147110 262.545105,59.023705 
z"/>
<path fill="#FFF9E6" opacity="1.000000" stroke="none" 
	d="
M218.016846,109.011002 
	C218.098602,108.439690 218.167160,108.115082 218.183411,107.787895 
	C218.543808,100.530907 218.542725,100.530853 226.663391,101.667427 
	C226.663391,104.145927 226.663391,106.684616 226.663391,109.691078 
	C224.117355,109.802353 221.552124,109.914459 218.553482,110.138489 
	C218.073135,109.919113 218.026215,109.587814 218.016846,109.011002 
z"/>
<path fill="#1C8522" opacity="1.000000" stroke="none" 
	d="
M292.487793,108.061615 
	C291.213165,108.448410 289.483185,108.978149 287.754242,108.974632 
	C277.062225,108.952904 266.370514,108.811203 255.372177,108.436493 
	C267.388092,108.095108 279.710480,108.026588 292.487793,108.061615 
z"/>
<path fill="#238729" opacity="1.000000" stroke="none" 
	d="
M293.945190,146.821487 
	C293.972504,147.323410 293.999786,147.825317 294.021545,148.704330 
	C287.980133,149.138855 281.944244,149.196289 275.445618,149.167542 
	C274.988983,148.873871 274.995087,148.666351 275.469635,148.213577 
	C278.204681,147.968307 280.471344,147.968307 283.126770,147.968307 
	C283.126770,144.956665 283.126770,142.486664 283.126770,140.016678 
	C283.672638,139.751709 284.218506,139.486725 285.018799,139.615143 
	C285.273254,142.596176 285.273254,145.183777 285.273254,148.616684 
	C288.657806,147.916046 291.301514,147.368759 293.945190,146.821487 
z"/>
<path fill="#587786" opacity="1.000000" stroke="none" 
	d="
M260.482056,47.978622 
	C258.515778,48.493095 256.549500,49.007572 254.034698,49.665573 
	C254.034698,51.788284 254.034698,54.169952 254.027069,57.049892 
	C253.389923,57.003307 252.258774,56.494488 252.216599,55.907425 
	C252.020691,53.180874 252.126511,50.432640 252.187988,47.338696 
	C252.638489,46.734215 253.025330,46.483204 253.945496,46.496273 
	C256.479919,47.166439 258.480988,47.572529 260.482056,47.978622 
z"/>
<path fill="#238729" opacity="1.000000" stroke="none" 
	d="
M262.407074,149.408615 
	C262.226257,146.330841 262.495544,143.146362 262.705566,139.528076 
	C262.897095,139.081116 263.147888,139.067932 263.714661,139.488007 
	C263.987366,148.621490 265.763000,149.999893 272.954163,146.848465 
	C272.977570,147.344467 273.000946,147.840485 273.020203,148.708954 
	C269.629761,149.154907 266.243469,149.228394 262.407074,149.408615 
z"/>
<path fill="#587786" opacity="1.000000" stroke="none" 
	d="
M253.586609,59.240353 
	C254.022110,61.812160 254.025467,64.172981 254.029373,67.040283 
	C251.635590,65.518936 251.417465,63.396774 253.586609,59.240353 
z"/>
<path fill="#587786" opacity="1.000000" stroke="none" 
	d="
M262.390991,58.571400 
	C259.993256,59.147110 257.441376,59.270519 254.422073,59.459297 
	C253.718323,59.182861 253.482025,58.841057 253.600677,57.987038 
	C256.716064,57.689583 259.476471,57.904339 262.390991,58.571400 
z"/>
<path fill="#FBFDF1" opacity="1.000000" stroke="none" 
	d="
M226.508896,39.997635 
	C226.368988,40.277889 225.985779,40.573292 225.323822,40.789841 
	C225.451920,40.478256 225.858749,40.245522 226.508896,39.997635 
z"/>
<path fill="#567685" opacity="1.000000" stroke="none" 
	d="
M114.281296,140.857391 
	C114.120071,140.576096 114.277191,140.362991 114.685936,140.115219 
	C115.007187,140.411606 114.894554,140.693283 114.281296,140.857391 
z"/>
<path fill="#688491" opacity="1.000000" stroke="none" 
	d="
M252.464478,69.183357 
	C252.706436,69.194641 252.758469,69.378983 252.810486,69.563332 
	C252.631851,69.494362 252.453201,69.425392 252.464478,69.183357 
z"/>
<path fill="#F8FBF5" opacity="1.000000" stroke="none" 
	d="
M305.805237,109.073853 
	C305.846252,109.262634 305.688568,109.525536 305.278534,109.770363 
	C305.157562,109.491226 305.351013,109.289787 305.805237,109.073853 
z"/>
<path fill="#92C753" opacity="1.000000" stroke="none" 
	d="
M307.144714,92.563774 
	C306.914978,92.655037 306.590607,92.478806 306.172638,92.032349 
	C306.402710,91.940170 306.726379,92.118225 307.144714,92.563774 
z"/>
<path fill="#FBFDF1" opacity="1.000000" stroke="none" 
	d="
M222.876633,40.584320 
	C222.968979,40.710606 222.499908,40.842430 222.265427,40.776493 
	C222.214462,40.374714 222.465576,40.290539 222.876633,40.584320 
z"/>
<path fill="#F4F6F7" opacity="1.000000" stroke="none" 
	d="
M107.574883,137.885910 
	C91.581245,137.902634 90.974686,137.081573 93.879524,119.209595 
	C96.527687,119.209595 99.300362,119.209602 102.073036,119.209602 
	C104.848473,119.209602 107.623901,119.209595 110.916908,119.209595 
	C110.916908,124.728218 111.093895,129.676712 110.785400,134.594727 
	C110.713394,135.742722 108.993462,136.787354 107.574883,137.885910 
z"/>
<path fill="#F4F6F7" opacity="1.000000" stroke="none" 
	d="
M63.711205,119.211761 
	C65.358757,120.122391 67.494820,120.960152 67.570412,121.954536 
	C67.930977,126.697899 67.731918,131.483795 67.731918,136.733887 
	C61.815014,137.242889 56.347923,137.713211 50.445107,138.221008 
	C50.445107,131.620605 50.445107,125.756386 50.445107,119.211075 
	C54.751198,119.211075 59.000717,119.211075 63.711205,119.211761 
z"/>
<path fill="#F5F6F7" opacity="1.000000" stroke="none" 
	d="
M50.089172,78.315117 
	C51.072491,77.244904 52.022739,76.161224 53.014641,76.121651 
	C57.651859,75.936661 62.300564,76.039543 67.703545,76.039543 
	C67.703545,81.374420 67.792656,86.460678 67.603020,91.536537 
	C67.576019,92.259392 66.218353,93.505188 65.440292,93.534126 
	C60.501957,93.717827 55.553429,93.627472 50.075287,93.627472 
	C50.075287,88.327980 50.075287,83.555313 50.089172,78.315117 
z"/>
<path fill="#F4F6F7" opacity="1.000000" stroke="none" 
	d="
M110.930283,89.725555 
	C111.243042,92.714676 110.257126,93.827415 107.592796,93.710915 
	C103.941864,93.551270 100.251648,93.917702 96.636276,93.524857 
	C95.422752,93.392998 93.509148,91.697701 93.422348,90.598076 
	C93.059517,86.001389 93.269432,81.359482 93.269432,76.385262 
	C99.222260,76.385262 104.763199,76.385262 110.930687,76.385262 
	C110.930687,80.727364 110.930687,84.994690 110.930283,89.725555 
z"/>
<path fill="#F8F9FA" opacity="1.000000" stroke="none" 
	d="
M83.836700,119.230286 
	C85.752983,119.321129 87.195457,119.411804 89.058449,119.528915 
	C89.058449,124.771370 89.270432,129.715408 88.902618,134.615921 
	C88.815605,135.775146 86.854851,137.608475 85.627975,137.719742 
	C81.377769,138.105209 77.071129,137.868408 72.357941,137.868408 
	C72.357941,131.775726 72.357941,125.916962 72.357941,119.230118 
	C75.917831,119.230118 79.640366,119.230118 83.836700,119.230286 
z"/>
<path fill="#F8F9FA" opacity="1.000000" stroke="none" 
	d="
M38.861320,137.879150 
	C35.446308,137.879105 32.501839,137.879105 29.137207,137.879105 
	C29.137207,131.602295 29.137207,125.750870 29.137207,119.571869 
	C34.578503,119.571869 39.956215,119.571869 45.955017,119.571869 
	C45.955017,124.743698 46.182343,129.829636 45.887989,134.885208 
	C45.619576,139.495255 41.753185,137.355652 38.861320,137.879150 
z"/>
<path fill="#FAFBFB" opacity="1.000000" stroke="none" 
	d="
M110.896332,100.263466 
	C110.906715,105.325752 110.906715,109.913895 110.906715,114.748840 
	C104.866356,114.748840 99.340988,114.748840 93.560539,114.748840 
	C93.560539,109.130890 93.560539,103.767738 93.560539,97.923332 
	C98.924118,97.923332 104.011124,97.860191 109.092148,98.005638 
	C109.706596,98.023216 110.288795,99.167320 110.896332,100.263466 
z"/>
<path fill="#F9FAFA" opacity="1.000000" stroke="none" 
	d="
M72.124382,92.508102 
	C71.984734,86.940437 71.984734,81.810425 71.984734,76.365311 
	C77.718880,76.365311 83.105942,76.365311 88.782593,76.365311 
	C88.782593,81.947975 88.782593,87.372620 88.782593,93.830086 
	C83.265343,93.534714 77.764687,93.240234 72.124382,92.508102 
z"/>
<path fill="#FAFBFB" opacity="1.000000" stroke="none" 
	d="
M56.102741,115.012985 
	C53.989361,115.012985 52.354805,115.012985 50.406384,115.012985 
	C50.406384,109.219040 50.406384,103.829071 50.406384,98.161118 
	C56.006439,98.161118 61.439129,98.161118 67.300720,98.161118 
	C67.300720,103.537346 67.300720,108.911888 67.300720,115.012985 
	C63.773075,115.012985 60.177322,115.012985 56.102741,115.012985 
z"/>
<path fill="#F9FAFA" opacity="1.000000" stroke="none" 
	d="
M40.737396,93.647034 
	C36.644554,93.646942 33.016655,93.646942 29.055210,93.646942 
	C29.055210,87.731194 29.055210,82.315933 29.055210,76.469406 
	C34.383152,76.469406 39.771740,76.469406 45.572105,76.469406 
	C45.572105,81.834709 45.572105,87.376648 45.572105,93.310867 
	C44.112419,93.423187 42.657379,93.535156 40.737396,93.647034 
z"/>
<path fill="#FFFFFF" opacity="1.000000" stroke="none" 
	d="
M45.974556,109.871155 
	C45.881821,111.787415 45.789112,113.223465 45.686314,114.815849 
	C40.083385,114.815849 34.820164,114.815849 29.145617,114.815849 
	C29.145617,109.361481 29.145617,103.999168 29.145617,98.265442 
	C34.457584,98.265442 39.854797,98.265442 45.974590,98.265442 
	C45.974590,101.895645 45.974590,105.643295 45.974556,109.871155 
z"/>
<path fill="#FFFFFF" opacity="1.000000" stroke="none" 
	d="
M73.263123,98.013313 
	C78.660294,97.936241 83.584198,97.936241 88.773895,97.936241 
	C88.773895,103.742783 88.773895,109.105202 88.773895,114.733337 
	C83.214813,114.733337 77.849403,114.733337 71.619705,114.733337 
	C72.021019,109.025429 72.405441,103.557907 73.263123,98.013313 
z"/>
<path fill="#E7F6FD" opacity="1.000000" stroke="none" 
	d="
M191.527954,57.686806 
	C189.297302,57.716515 187.498795,57.716515 185.358246,57.716515 
	C185.358246,54.823929 185.358246,52.264805 185.358246,49.355625 
	C187.878021,49.355625 190.445251,49.355625 194.362259,49.355625 
	C193.510193,52.300240 192.735138,54.978668 191.527954,57.686806 
z"/>
<path fill="#EAF7FD" opacity="1.000000" stroke="none" 
	d="
M198.338654,57.713341 
	C192.790680,56.142540 196.347534,52.343960 195.300369,49.307438 
	C198.370895,49.307438 200.924606,49.307438 203.748718,49.307438 
	C203.748718,52.007111 203.748718,54.568886 203.748718,57.494579 
	C201.987366,57.573818 200.377274,57.646255 198.338654,57.713341 
z"/>
<path fill="#E7F6FD" opacity="1.000000" stroke="none" 
	d="
M185.015564,64.913918 
	C185.013702,62.980103 185.013702,61.498390 185.013702,60.082043 
	C193.503723,57.909275 194.388657,58.713005 193.268707,67.830605 
	C190.543549,66.744331 186.627258,70.914459 185.015564,64.913918 
z"/>
<path fill="#EAF7FD" opacity="1.000000" stroke="none" 
	d="
M201.826553,67.964622 
	C199.579407,67.977058 197.785370,67.977058 196.081573,67.977058 
	C193.997910,59.368378 194.816940,58.503727 204.636673,59.923042 
	C203.829300,62.673325 203.054474,65.312759 201.826553,67.964622 
z"/>
<path fill="#F2FAFE" opacity="1.000000" stroke="none" 
	d="
M189.887085,38.629688 
	C196.781296,39.187916 192.342346,43.791595 193.878189,46.701595 
	C190.716171,46.701595 188.176224,46.701595 185.333008,46.701595 
	C185.333008,44.265648 185.333008,41.878162 185.333008,39.001656 
	C186.642807,38.882320 188.032425,38.755714 189.887085,38.629688 
z"/>
<path fill="#F2FAFE" opacity="1.000000" stroke="none" 
	d="
M209.134674,67.963211 
	C203.159760,66.808685 207.446564,62.615620 205.589615,59.716930 
	C208.723999,59.716930 211.216080,59.716930 214.047577,59.716930 
	C214.047577,62.356293 214.047577,64.884384 214.047577,67.716766 
	C212.478195,67.804146 211.038422,67.884308 209.134674,67.963211 
z"/>
<path fill="#F2FAFE" opacity="1.000000" stroke="none" 
	d="
M208.210510,49.047478 
	C210.297211,49.038216 211.923172,49.038216 213.959015,49.038216 
	C213.959015,51.820091 213.959015,54.332970 213.959015,57.274097 
	C211.512512,57.274097 209.018951,57.274097 205.279694,57.274097 
	C206.178543,54.283848 206.964157,51.670296 208.210510,49.047478 
z"/>
<path fill="#F2FAFE" opacity="1.000000" stroke="none" 
	d="
M177.207275,57.676178 
	C175.889648,55.063198 175.014374,52.462944 173.942642,49.279060 
	C177.726181,49.279060 180.129776,49.279060 182.749023,49.279060 
	C182.749023,52.043678 182.749023,54.608208 182.749023,57.688908 
	C180.886597,57.688908 179.268112,57.688908 177.207275,57.676178 
z"/>
<path fill="#F2FAFE" opacity="1.000000" stroke="none" 
	d="
M182.903320,66.736099 
	C180.339127,67.514206 177.844986,67.842583 175.046539,68.211021 
	C175.046539,65.018112 175.046539,62.588478 175.046539,59.731857 
	C177.459778,59.731857 179.830719,59.731857 182.973358,59.731857 
	C182.973358,61.817822 182.973358,64.052094 182.903320,66.736099 
z"/>
<path fill="#F4FBFE" opacity="1.000000" stroke="none" 
	d="
M195.335083,41.122707 
	C197.934601,39.750973 200.519974,38.824730 203.703735,37.684105 
	C203.703735,41.424122 203.703735,43.823467 203.703735,46.609100 
	C201.262283,46.609100 198.735306,46.609100 195.604675,46.609100 
	C195.515533,45.025406 195.418243,43.296806 195.335083,41.122707 
z"/>
<path fill="#FEFEFE" opacity="1.000000" stroke="none" 
	d="
M209.144470,46.972542 
	C203.215652,45.651096 207.584747,41.660046 205.458267,38.937466 
	C208.944275,38.937466 211.337906,38.937466 214.033218,38.937466 
	C214.033218,41.603806 214.033218,44.000477 214.033218,46.716347 
	C212.504486,46.805370 211.057861,46.889614 209.144470,46.972542 
z"/>
<path fill="#FEFEFE" opacity="1.000000" stroke="none" 
	d="
M177.113556,46.961948 
	C175.808640,44.490459 174.965591,42.027061 173.924484,38.984890 
	C177.593658,38.984890 179.981018,38.984890 182.673065,38.984890 
	C182.673065,41.426922 182.673065,43.834900 182.673065,46.970039 
	C181.046158,46.970039 179.310806,46.970039 177.113556,46.961948 
z"/>
<path fill="#FEF3E7" opacity="1.000000" stroke="none" 
	d="
M204.017273,124.694489 
	C201.418793,125.893913 198.836502,126.643250 195.691971,127.555748 
	C195.691971,123.793015 195.691971,121.122314 195.691971,118.241714 
	C198.451797,118.241714 200.998001,118.241714 204.033478,118.241714 
	C204.033478,120.392471 204.033478,122.318436 204.017273,124.694489 
z"/>
<path fill="#FEF3E7" opacity="1.000000" stroke="none" 
	d="
M185.510406,118.501106 
	C188.265823,118.181419 190.695374,118.181419 193.397308,118.181419 
	C193.526199,119.660538 193.707001,120.925941 193.727280,122.193916 
	C193.747894,123.481674 193.610138,124.771957 193.522644,126.421249 
	C190.822296,126.421249 188.290283,126.421249 185.184525,126.421249 
	C185.184525,123.910446 185.184525,121.365623 185.510406,118.501106 
z"/>
<path fill="#FEF3E7" opacity="1.000000" stroke="none" 
	d="
M202.653778,128.461945 
	C203.501862,131.163635 203.920410,133.795105 204.394028,136.772736 
	C201.074570,136.772736 198.504913,136.772736 195.958511,136.772736 
	C194.304733,128.577469 194.502106,128.318588 202.653778,128.461945 
z"/>
<path fill="#FEF3E6" opacity="1.000000" stroke="none" 
	d="
M213.322205,128.551361 
	C214.127640,131.184158 214.532532,133.691986 215.011688,136.659866 
	C211.784760,136.659866 209.230911,136.659866 206.313934,136.659866 
	C206.313934,134.269821 206.313934,131.705276 206.313934,128.426376 
	C208.439285,128.426376 210.680481,128.426376 213.322205,128.551361 
z"/>
<path fill="#FEF4E7" opacity="1.000000" stroke="none" 
	d="
M185.000656,132.159256 
	C184.543762,126.973709 188.106659,128.659882 190.386154,128.379486 
	C193.013504,128.056320 193.959518,129.395676 193.763596,131.900986 
	C193.649490,133.360260 193.742828,134.835739 193.742828,136.668167 
	C190.873672,136.668167 188.311676,136.668167 185.274246,136.668167 
	C185.191498,135.440750 185.095978,134.023849 185.000656,132.159256 
z"/>
<path fill="#FEF3E7" opacity="1.000000" stroke="none" 
	d="
M205.972397,122.887337 
	C205.972305,121.140778 205.972305,119.845840 205.972305,118.288361 
	C208.922867,118.288361 211.476334,118.288361 214.338867,118.288361 
	C214.338867,121.001465 214.338867,123.555519 214.338867,126.810371 
	C211.269165,125.422272 206.673370,130.050522 205.972397,122.887337 
z"/>
<path fill="#FFF8F1" opacity="1.000000" stroke="none" 
	d="
M174.668793,135.571762 
	C174.618286,133.173859 174.618286,131.197205 174.618286,128.810928 
	C177.425781,128.810928 179.949875,128.810928 182.753052,128.810928 
	C182.753052,131.416138 182.753052,133.976074 182.753052,137.366058 
	C179.899765,136.878403 177.309540,136.435715 174.668793,135.571762 
z"/>
<path fill="#FEF4E8" opacity="1.000000" stroke="none" 
	d="
M197.354248,138.986206 
	C199.616760,138.970978 201.434631,138.970978 203.656662,138.970978 
	C203.789078,140.310822 203.962646,141.554977 204.021591,142.804550 
	C204.083466,144.115997 204.035431,145.432617 204.035431,147.912140 
	C200.969421,147.411591 198.279160,146.972397 195.588898,146.533203 
	C196.029129,144.022614 196.469360,141.512024 197.354248,138.986206 
z"/>
<path fill="#FEF3E6" opacity="1.000000" stroke="none" 
	d="
M206.038910,140.207550 
	C208.746826,139.416702 211.396820,139.079819 213.993362,138.749725 
	C215.541016,147.905518 215.295029,148.167999 205.980972,147.254211 
	C205.980972,145.116211 205.980972,142.888855 206.038910,140.207550 
z"/>
<path fill="#FEF4E7" opacity="1.000000" stroke="none" 
	d="
M185.002319,142.046661 
	C186.250763,136.140045 190.422043,140.410431 192.856827,138.881836 
	C195.209991,147.346191 194.311478,148.340103 185.260727,147.168259 
	C185.177338,145.670425 185.089081,144.084747 185.002319,142.046661 
z"/>
<path fill="#FFF8F1" opacity="1.000000" stroke="none" 
	d="
M179.078003,138.984802 
	C186.620361,139.278137 181.357849,144.421448 183.405457,147.291565 
	C180.258728,147.291565 177.841354,147.291565 175.002441,147.291565 
	C175.002441,144.770874 175.002441,142.223877 175.002441,139.271378 
	C176.127609,139.182358 177.377075,139.083511 179.078003,138.984802 
z"/>
<path fill="#FEF8F1" opacity="1.000000" stroke="none" 
	d="
M174.748230,124.737633 
	C174.720306,122.350395 174.720306,120.420914 174.720306,118.267136 
	C177.639221,118.267136 180.039352,118.267136 182.729828,118.267136 
	C182.729828,120.953911 182.729828,123.515854 182.729828,127.276306 
	C179.898804,126.535629 177.337479,125.865517 174.748230,124.737633 
z"/>
<path fill="#FFFFFF" opacity="1.000000" stroke="none" 
	d="
M272.954651,146.415283 
	C265.763000,149.999893 263.987366,148.621490 264.091370,139.483261 
	C264.570648,138.644913 265.371155,138.220062 265.347260,137.848175 
	C265.162018,134.964615 264.817566,132.091263 264.493256,128.930206 
	C267.629852,128.930206 270.038055,128.930206 272.955139,128.930206 
	C272.955139,134.723846 272.955139,140.352982 272.954651,146.415283 
z"/>
<path fill="#F5F9F5" opacity="1.000000" stroke="none" 
	d="
M293.947601,146.395828 
	C291.301514,147.368759 288.657806,147.916046 285.273254,148.616684 
	C285.273254,145.183777 285.273254,142.596176 285.319366,139.567535 
	C285.516815,138.426270 285.808929,137.722641 285.792297,137.026413 
	C285.747314,135.146698 285.570801,133.270126 285.678711,130.651810 
	C285.939789,129.658066 285.968658,129.404846 285.997498,129.151642 
	C288.040161,129.000504 290.082825,128.849365 292.634003,129.021057 
	C293.289612,129.623962 293.504791,129.834473 293.788025,129.975418 
	C293.837463,131.706085 293.886902,133.436752 293.699890,135.685669 
	C293.256348,136.362122 293.108093,136.563599 293.018646,136.808365 
	C292.496063,137.359604 291.973480,137.910828 291.450897,138.462051 
	C295.770050,139.804398 293.364624,143.385025 293.947601,146.395828 
z"/>
<path fill="#FFFFFF" opacity="1.000000" stroke="none" 
	d="
M282.933533,139.676453 
	C283.126770,142.486664 283.126770,144.956665 283.126770,147.968307 
	C280.471344,147.968307 278.204681,147.968307 275.493530,147.903091 
	C275.102478,141.633606 275.155945,135.429321 275.211700,128.959351 
	C277.814667,128.959351 280.217377,128.959351 284.152618,128.959351 
	C283.085876,132.068161 282.075043,134.720551 281.336792,137.446732 
	C281.209869,137.915527 282.243011,138.698425 282.933533,139.676453 
z"/>
<path fill="#E5EFE6" opacity="1.000000" stroke="none" 
	d="
M285.977386,126.083153 
	C282.606415,126.343132 279.235443,126.603111 275.395691,126.899239 
	C275.395691,123.886185 275.395691,121.217133 275.395691,118.383888 
	C278.594727,118.383888 281.835297,118.383888 285.543518,118.792305 
	C285.999908,121.494865 285.988647,123.789009 285.977386,126.083153 
z"/>
<path fill="#E6EFE7" opacity="1.000000" stroke="none" 
	d="
M261.192719,128.498032 
	C259.595367,128.920868 257.749115,129.019562 255.315979,129.106186 
	C254.729095,129.094101 254.447540,129.021622 254.447540,129.021622 
	C254.447540,125.583374 254.447540,122.145126 254.447540,118.350845 
	C256.905182,118.350845 259.456085,118.350845 263.300751,118.350845 
	C262.486572,121.744179 261.715210,124.959038 261.192719,128.498032 
z"/>
<path fill="#F4F8F4" opacity="1.000000" stroke="none" 
	d="
M266.156616,118.098228 
	C268.566406,118.050461 270.510010,118.050461 272.728516,118.050461 
	C272.728516,120.944786 272.728516,123.500359 272.728516,126.361984 
	C270.295776,126.361984 267.905090,126.361984 264.422913,126.361984 
	C264.859741,123.530495 265.275116,120.838249 266.156616,118.098228 
z"/>
<path fill="#EAF2EA" opacity="1.000000" stroke="none" 
	d="
M286.282288,126.335236 
	C285.988647,123.789009 285.999908,121.494865 286.008728,118.777710 
	C288.430176,118.216576 290.854065,118.078468 293.637024,117.919891 
	C293.637024,120.818626 293.637024,123.363121 293.637024,126.587318 
	C291.352203,126.587318 288.969666,126.587318 286.282288,126.335236 
z"/>
<path fill="#EEF4EE" opacity="1.000000" stroke="none" 
	d="
M262.379944,136.718170 
	C261.985321,134.460587 261.985504,132.200500 261.990509,129.515625 
	C264.939636,131.358032 265.220917,133.897461 262.379944,136.718170 
z"/>
<path fill="#F4F9F5" opacity="1.000000" stroke="none" 
	d="
M285.718506,129.182831 
	C285.968658,129.404846 285.939789,129.658066 285.839966,130.289886 
	C285.378143,130.299561 284.987305,129.930664 284.596436,129.561783 
	C284.877472,129.445862 285.158508,129.329941 285.718506,129.182831 
z"/>
<path fill="#F4F9F5" opacity="1.000000" stroke="none" 
	d="
M293.813110,129.695221 
	C293.504791,129.834473 293.289612,129.623962 293.065491,129.128250 
	C293.271698,129.080093 293.554932,129.247574 293.813110,129.695221 
z"/>
<path fill="#EEF4EE" opacity="1.000000" stroke="none" 
	d="
M254.249847,137.247711 
	C254.518723,137.113861 254.697479,137.259460 254.907318,137.618195 
	C254.983673,137.775726 254.527390,137.794968 254.527390,137.794968 
	C254.527390,137.794968 254.204971,137.471573 254.249847,137.247711 
z"/>
<path fill="#F4F9F5" opacity="1.000000" stroke="none" 
	d="
M293.263062,136.829178 
	C293.108093,136.563599 293.256348,136.362122 293.630249,136.113678 
	C293.978821,136.396454 293.882294,136.671982 293.263062,136.829178 
z"/>
<path fill="#EEF4EE" opacity="1.000000" stroke="none" 
	d="
M254.274780,129.232971 
	C254.447540,129.021622 254.729095,129.094101 254.863495,129.149658 
	C254.890350,129.439087 254.735931,129.636276 254.368301,129.888916 
	C254.168671,129.802170 254.135345,129.623260 254.274780,129.232971 
z"/>
<path fill="#F1F3F4" opacity="1.000000" stroke="none" 
	d="
M260.493225,47.977806 
	C258.480988,47.572529 256.479919,47.166439 254.151459,46.391544 
	C253.941986,43.877827 254.059875,41.732918 254.261276,38.068474 
	C257.671936,39.043934 261.214752,39.244663 263.516937,41.038040 
	C264.780609,42.022457 265.467010,46.200203 261.127502,47.633018 
	C260.723816,47.967770 260.504395,47.976986 260.493225,47.977806 
z"/>
<path fill="#F4F6F7" opacity="1.000000" stroke="none" 
	d="
M293.545288,38.931034 
	C293.650085,42.311047 295.374268,46.298409 290.799194,48.588924 
	C289.536743,49.007355 288.375000,49.034492 287.213257,49.061630 
	C286.422699,45.882320 285.632172,42.703007 284.672241,38.842438 
	C288.304565,38.842438 290.701691,38.842438 293.545288,38.931034 
z"/>
<path fill="#EEF1F2" opacity="1.000000" stroke="none" 
	d="
M286.758850,49.078735 
	C288.375000,49.034492 289.536743,49.007355 290.989075,49.042641 
	C297.237518,50.351547 292.006714,54.663906 294.899567,57.431217 
	C290.957977,57.431217 288.433929,57.431217 285.310120,57.431217 
	C285.310120,54.813908 285.310120,52.417751 285.353455,49.587128 
	C285.699341,49.133720 286.001892,49.114784 286.758850,49.078735 
z"/>
<path fill="#F4F5F6" opacity="1.000000" stroke="none" 
	d="
M275.134125,59.870049 
	C277.656036,59.449493 280.134583,59.449493 283.283478,59.449493 
	C283.283478,62.147800 283.283478,64.705322 283.153748,67.634750 
	C280.562378,68.006668 278.100769,68.006668 275.090729,68.006668 
	C275.090729,65.152100 275.090729,62.721355 275.134125,59.870049 
z"/>
<path fill="#F4F6F7" opacity="1.000000" stroke="none" 
	d="
M282.568298,49.015110 
	C283.218658,51.598862 283.419189,54.202759 283.684875,57.652504 
	C280.804932,57.652504 278.409912,57.652504 275.596558,57.599796 
	C275.178192,54.927219 275.178192,52.307350 275.178192,49.035252 
	C277.613586,49.035252 279.866028,49.035252 282.568298,49.015110 
z"/>
<path fill="#F5F6F7" opacity="1.000000" stroke="none" 
	d="
M265.044800,59.495384 
	C265.044769,59.495384 264.990204,59.492462 265.419769,59.434982 
	C268.196930,59.406219 270.544495,59.434937 272.892090,59.463650 
	C272.892090,62.080585 272.892090,64.697525 272.892090,67.944725 
	C270.417542,67.944725 268.166595,67.944725 265.337646,67.522385 
	C264.854675,64.565163 264.949738,62.030273 265.044800,59.495384 
z"/>
<path fill="#F6F7F8" opacity="1.000000" stroke="none" 
	d="
M264.985748,57.452534 
	C264.985748,57.452534 264.987762,57.515568 264.876587,57.053276 
	C264.853668,54.063438 264.941925,51.535892 265.030212,49.008350 
	C267.488922,49.008350 269.947632,49.008350 272.947906,49.008350 
	C272.947906,51.826336 272.947906,54.253448 272.482971,57.163895 
	C269.673920,57.582329 267.329834,57.517429 264.985748,57.452534 
z"/>
<path fill="#FEFEFE" opacity="1.000000" stroke="none" 
	d="
M272.989044,42.963833 
	C273.038147,50.499722 267.770996,45.066051 265.117737,48.119686 
	C265.117737,44.244705 265.117737,41.861851 265.117737,38.865253 
	C267.934052,40.128536 272.786163,35.348804 272.989044,42.963833 
z"/>
<path fill="#FDFDFD" opacity="1.000000" stroke="none" 
	d="
M280.947876,38.814926 
	C282.275085,41.162357 283.130798,43.504974 284.252289,46.575111 
	C280.630280,46.575111 278.233704,46.575111 275.449158,46.575111 
	C275.449158,44.416656 275.449158,42.023598 275.449158,38.810112 
	C277.016449,38.810112 278.746429,38.810112 280.947876,38.814926 
z"/>
<path fill="#587786" opacity="1.000000" stroke="none" 
	d="
M264.782166,59.168877 
	C264.949738,62.030273 264.854675,64.565163 264.890778,67.547012 
	C264.523712,67.978668 264.025452,67.963379 263.153625,67.902496 
	C262.721558,65.195251 262.663055,62.533596 262.534607,59.429558 
	C263.149658,58.938900 263.834564,58.890633 264.782166,59.168877 
z"/>
<path fill="#587786" opacity="1.000000" stroke="none" 
	d="
M264.627075,49.008789 
	C264.941925,51.535892 264.853668,54.063438 264.907410,57.059891 
	C264.310516,56.771385 263.106445,56.107834 262.930634,55.236771 
	C262.578033,53.489479 262.787170,51.628819 262.685089,49.360519 
	C263.145142,48.940472 263.684540,48.974854 264.627075,49.008789 
z"/>
<path fill="#587786" opacity="1.000000" stroke="none" 
	d="
M264.686646,57.975945 
	C267.329834,57.517429 269.673920,57.582329 272.454346,57.589310 
	C272.900879,57.853134 272.911133,58.174873 272.906738,58.980133 
	C270.544495,59.434937 268.196930,59.406219 265.416992,59.462158 
	C264.785614,59.197662 264.586578,58.848511 264.686646,57.975945 
z"/>
<path fill="#FFFFFF" opacity="1.000000" stroke="none" 
	d="
M298.015930,30.018257 
	C298.034912,27.578493 298.034912,25.121107 298.034912,22.338699 
	C300.706909,22.338699 302.957489,22.338699 305.666809,22.338699 
	C305.666809,24.644958 305.666809,27.000174 305.666809,30.066483 
	C303.384888,30.066483 301.127136,30.066483 298.416138,30.014080 
	C297.962860,29.961676 297.996979,30.000633 298.015930,30.018257 
z"/>
</svg>